<?xml version="1.0" encoding="UTF-8"?>
<svg width="24px" height="24px" viewBox="0 0 24 24" version="1.1" xmlns="http://www.w3.org/2000/svg" xmlns:xlink="http://www.w3.org/1999/xlink">
    <title></title>
    <g id="Mobile-App" stroke="none" stroke-width="1" fill="none" fill-rule="evenodd">
        <g id="Menu-slide-out" transform="translate(-336.000000, -405.000000)" fill="#009999" fill-rule="nonzero">
            <g id="Group-3-Copy-4" transform="translate(0.000000, 109.000000)">
                <g id="information-circle" transform="translate(336.000000, 296.000000)">
                    <path d="M12,23.625 C15.21875,23.625 17.9609375,22.4921875 20.2265625,20.2265625 C22.4921875,17.9609375 23.625,15.21875 23.625,12 C23.625,8.78125 22.4921875,6.0390625 20.2265625,3.7734375 C17.9609375,1.5078125 15.21875,0.375 12,0.375 C8.78125,0.375 6.03125,1.515625 3.75,3.796875 C1.5,6.046875 0.375,8.78125 0.375,12 C0.375,15.21875 1.5078125,17.9609375 3.7734375,20.2265625 C6.0390625,22.4921875 8.78125,23.625 12,23.625 Z M12,9.46875 C11.46875,9.46875 11.0078125,9.2734375 10.6171875,8.8828125 C10.2265625,8.4921875 10.03125,8.03125 10.03125,7.5 C10.03125,6.96875 10.2265625,6.5078125 10.6171875,6.1171875 C11.0078125,5.7265625 11.46875,5.53125 12,5.53125 C12.53125,5.53125 12.984375,5.734375 13.359375,6.140625 L13.4872685,6.26851852 C13.8082562,6.61728395 13.96875,7.02777778 13.96875,7.5 C13.96875,8.03125 13.7734375,8.4921875 13.3828125,8.8828125 C12.9921875,9.2734375 12.53125,9.46875 12,9.46875 Z M14.0625,18 L9.9375,18 C9.5625,18 9.375,17.8125 9.375,17.4375 L9.375,17.4375 L9.375,16.3125 C9.375,15.9375 9.5625,15.75 9.9375,15.75 L9.9375,15.75 L10.5,15.75 L10.5,12.75 L9.9375,12.75 C9.5625,12.75 9.375,12.5625 9.375,12.1875 L9.375,12.1875 L9.375,11.0625 C9.375,10.6875 9.5625,10.5 9.9375,10.5 L9.9375,10.5 L12.9375,10.5 C13.3125,10.5 13.5,10.6875 13.5,11.0625 L13.5,11.0625 L13.5,15.75 L14.0625,15.75 C14.4375,15.75 14.625,15.9375 14.625,16.3125 L14.625,16.3125 L14.625,17.4375 C14.625,17.8125 14.4375,18 14.0625,18 L14.0625,18 Z" id=""></path>
                </g>
            </g>
        </g>
    </g>
</svg>