<?xml version="1.0" encoding="UTF-8"?>
<svg width="164px" height="88px" viewBox="0 0 164 88" version="1.1" xmlns="http://www.w3.org/2000/svg" xmlns:xlink="http://www.w3.org/1999/xlink">
    <title>talkbubbles_welcome</title>
    <defs>
        <polygon id="path-1" points="0 0.247021888 94.5216393 0.247021888 94.5216393 66 0 66"></polygon>
        <polygon id="path-3" points="0.000132252318 0.48243956 50.4297247 0.48243956 50.4297247 54 0.000132252318 54"></polygon>
    </defs>
    <g id="Desktop-Conversations" stroke="none" stroke-width="1" fill="none" fill-rule="evenodd">
        <g id="DT-Welcome-Modal_screen" transform="translate(-447.000000, -346.000000)">
            <g id="Welcome-modal" transform="translate(206.000000, 201.000000)">
                <g id="Group" transform="translate(241.000000, 138.024352)">
                    <g id="Group-24" transform="translate(116.500000, 41.000000) rotate(-9.000000) translate(-116.500000, -41.000000) translate(69.000000, 8.000000)">
                        <g id="Group-3">
                            <mask id="mask-2" fill="white">
                                <use xlink:href="#path-1"></use>
                            </mask>
                            <g id="Clip-2"></g>
                            <path d="M48.1565434,0.291335 C45.7326705,0.221485 43.1918324,0.234135 40.6048671,0.329835 C37.6428439,0.438735 35.003711,0.641685 32.5370058,0.950235 C29.2883353,1.359435 25.9968324,2.092585 22.7553006,3.129885 C19.4341445,4.193035 16.2920058,5.642285 13.4150983,7.437485 C10.4722948,9.274485 7.91113873,11.593835 6.00949133,14.144185 C5.15888439,15.283785 4.40053179,16.538885 3.75694798,17.873185 C2.88821965,19.288885 2.16610983,20.785435 1.60928902,22.320485 C0.314982659,25.891085 -0.214381503,29.668485 0.0783063584,33.244585 C0.225473988,35.037585 0.698277457,36.778885 1.18810405,38.394235 C1.65651445,39.942485 2.30009827,41.450585 3.1556474,43.005435 C4.68663006,45.787335 7.21703468,47.972485 10.0983353,49.000985 C11.0477861,49.338685 12.0620347,49.589485 13.1136243,49.746785 C13.7242601,49.838085 14.3420347,49.866685 14.9191734,49.883185 L15.3480462,49.894185 L15.6956474,49.902985 C15.9158497,49.907935 16.1366012,49.913435 16.3579017,49.919485 C17.5028439,49.953035 18.8311965,50.014085 20.1084798,50.324285 C20.3803006,50.417235 20.6246647,50.518435 20.8547514,50.633385 C20.9222948,50.683435 20.989289,50.735135 21.0540867,50.790685 L21.1161387,50.875385 C21.162815,50.987035 21.2034509,51.099785 21.241341,51.215285 C21.3039422,51.560135 21.3385376,51.930835 21.3478728,52.348285 C21.249578,54.546635 20.6241156,56.716385 20.0189711,58.814085 L19.9662543,58.996685 L19.9168324,59.166635 C19.6982775,59.924535 19.4714855,60.708835 19.2639133,61.483785 C19.0947803,62.112435 18.9261965,62.790585 18.837237,63.489635 C18.7125838,64.487885 19.2298671,65.422885 20.1244046,65.816685 C20.381948,65.929985 20.6510231,65.991035 20.9239422,65.999285 C21.5790578,66.017985 22.2286821,65.724835 22.7069769,65.194085 C23.5746069,64.228835 24.3104451,63.138735 25.0226705,62.084935 L25.2253006,61.784085 C26.1291734,60.450885 26.9479306,59.434485 27.8040289,58.585835 C28.7578728,57.726185 29.8259364,56.955635 30.9780173,56.295635 C32.3596358,55.575685 33.880185,54.992135 35.4957341,54.561485 C37.114578,54.186935 38.8421503,53.955385 40.7783931,53.853635 C42.801948,53.746935 44.9408208,53.714485 47.7133931,53.748585 C48.7710231,53.766735 49.9209075,53.793685 51.3310809,53.834935 C52.1350116,53.858035 52.9383931,53.882785 53.7423237,53.908085 C54.5067168,53.931735 55.271659,53.955385 56.0366012,53.977935 C57.7932775,54.028535 59.8777861,54.081885 62.0172081,54.090685 C66.8633064,54.111585 71.0960231,53.836585 74.9580751,53.249185 C76.9673526,52.942835 78.8915145,52.495135 80.6767457,51.918185 C82.4597803,51.341785 84.2197514,50.504685 85.9083353,49.429985 C87.5348671,48.393785 89.0499249,47.031985 90.4112254,45.383085 C91.0811676,44.571285 91.6390867,43.673135 92.1415434,42.823935 C92.5923815,42.061085 92.9850116,41.218485 93.3413988,40.247185 C94.5884798,36.859735 94.8531618,32.921735 94.1074393,28.857785 C93.4424393,25.241535 92.0866301,21.648385 90.0773526,18.178985 C88.7023237,15.804635 86.7979306,13.539735 84.4174393,11.448085 C82.3422659,9.625385 79.8854451,8.008385 76.9063988,6.506335 C74.3891734,5.235285 71.5979306,4.175985 68.1235665,3.173335 C65.2691734,2.351085 62.2983642,1.715285 59.0403584,1.230185 C55.5989422,0.717035 51.9367746,0.400785 48.1565434,0.291335" id="Fill-1" fill="#F7941E" mask="url(#mask-2)"></path>
                        </g>
                        <path d="M21.305246,16.428517 C20.7720986,16.8040949 20.5125093,17.3174788 20.3710739,17.9257455 C18.8024797,24.6855828 18.5661719,31.6555177 17.0359922,38.4221323 C16.912018,38.9733564 17.122134,39.6256759 17.4544781,40.0701568 C17.8182522,40.5592552 18.3816657,40.889086 18.9962985,40.9766267 C19.5911421,41.0613436 20.2081031,40.9133715 20.6946874,40.5716804 C21.2255067,40.197232 21.4909163,39.681589 21.6276954,39.0744518 C23.1578751,32.3078372 23.3941829,25.3373375 24.9627771,18.5775003 C25.0902436,18.0285353 24.8754713,17.3716976 24.5448733,16.9300406 C24.1810992,16.4409421 23.6176857,16.1111113 23.0036349,16.0235706 C22.9157471,16.0105807 22.8272772,16.0038034 22.7388073,16.0009795 C22.2295234,15.9862952 21.7196575,16.1370911 21.305246,16.428517" id="Fill-4" fill="#FEFEFE"></path>
                        <path d="M30.3210035,16.4209957 C30.1770535,16.5530746 30.0325252,16.6840437 29.8868408,16.8155677 C29.6226432,17.1324462 29.4584592,17.4909463 29.3942887,17.8921778 C27.4240801,24.6060069 27.2627867,31.6245056 26.0302501,38.466529 C25.8169265,39.6546848 26.7598285,40.8045487 27.9773341,40.9765844 C29.2428231,41.1547245 30.3776586,40.2956562 30.5909822,39.1069455 C31.8240969,32.2649221 31.9848123,25.2464234 33.9550208,18.5314843 C34.1064864,18.0148225 33.8521167,17.3277899 33.5393577,16.9137945 C33.1780372,16.4332046 32.6190021,16.1091117 32.0079368,16.0230939 C31.9212199,16.0108849 31.8327686,16.0036705 31.7454736,16.0008957 C31.2390467,15.9870219 30.733198,16.1346396 30.3210035,16.4209957" id="Fill-6" fill="#FEFEFE"></path>
                        <path d="M27.4299572,28.0025115 C25.2920951,28.076708 23.1791121,28.4493768 21.0424071,28.5432466 C20.4649819,28.569103 19.8725135,28.9305298 19.5172639,29.3549113 C19.1272993,29.8203257 18.9438887,30.4301984 19.0150543,31.0260187 C19.0827485,31.6021658 19.3870828,32.1406525 19.8499488,32.5077003 C20.3562084,32.9073496 20.9342122,33.0237032 21.5694957,32.9961605 C23.7073578,32.9006044 25.8186051,32.5284978 27.9570458,32.4537392 C28.5321567,32.4351901 29.1304109,32.0636455 29.482189,31.6437608 C29.8721536,31.1783464 30.0561428,30.5684737 29.9849772,29.9720912 C29.9167044,29.3959442 29.6129487,28.8574575 29.1495041,28.4909718 C28.7109387,28.1435973 28.2266652,28.0165639 27.6932122,28.0013874 C27.6070034,27.999139 27.5190589,27.9997011 27.4299572,28.0025115" id="Fill-8" fill="#FEFEFE"></path>
                        <path d="M42.2999254,16.0076495 C40.8195677,16.1059609 39.3483293,16.6045792 38.2090315,17.4616812 C36.9821889,18.3845052 36.1061333,19.5843393 35.4756894,20.8949776 C34.8719953,22.1458685 34.5029698,23.5043045 34.2154095,24.8404711 C33.9406162,26.122322 33.7795096,27.4231834 33.6396811,28.7224153 C33.520523,29.827197 33.4214272,30.933065 33.2809908,32.0373035 C33.1052933,33.4098616 32.9320276,34.7905671 33.0268678,36.1734452 C33.072464,36.8268633 33.242082,37.496576 33.5059322,38.1032826 C33.8190263,38.8186205 34.343079,39.4334745 34.9887216,39.9326359 C35.3200542,40.1906355 35.7310283,40.3861721 36.1249797,40.5534645 C36.5505445,40.7343358 37.0326487,40.8304747 37.4904349,40.9157503 C37.9871298,41.0097165 38.5342846,41.0026555 39.0358431,40.9972239 C39.4918054,40.9934218 39.9392565,40.9554008 40.3909631,40.8967398 C41.6956233,40.7299906 42.6756383,39.6963625 42.5200032,38.498701 C42.3716634,37.3520962 41.1442129,36.4281859 39.835905,36.5954783 C39.4735669,36.6421898 39.1130527,36.6758656 38.7488908,36.6894445 C38.5567787,36.6769519 38.3658825,36.6563119 38.1768101,36.6248088 C38.1391172,36.6112299 38.1020323,36.5971078 38.0649474,36.5824425 C38.0625156,36.5802699 38.0600838,36.5791836 38.057652,36.5775541 C38.0497486,36.5672341 38.0412373,36.5569142 38.032726,36.546051 C37.9956411,36.4667501 37.9615959,36.3858196 37.9311984,36.3038029 C37.8576365,35.9301108 37.8284549,35.5526166 37.8211595,35.1724066 C37.8606763,34.278913 37.9834821,33.3908511 38.0971687,32.502246 C38.2120712,31.6049504 38.2953603,30.7060253 38.3877687,29.8071002 C38.5914319,27.8082818 38.8406913,25.7986004 39.4218912,23.8557272 C39.6802699,23.1132314 39.9976196,22.3902892 40.4189288,21.7102564 C40.6286715,21.4332463 40.8578685,21.1714445 41.1125995,20.9270238 C41.2846493,20.7988387 41.4639944,20.6809736 41.6530668,20.5723422 C41.831804,20.4995591 42.014189,20.4360098 42.2014375,20.3822372 C42.4172597,20.3480183 42.6342977,20.3246625 42.8549835,20.3105405 C44.1705867,20.2236353 45.1317553,19.0460706 44.9852394,17.9108721 C44.9128934,17.3541361 44.5949357,16.8337915 44.1079679,16.479653 C43.670852,16.1624493 43.1583504,16.0152537 42.6160592,16.0011316 C42.5114919,15.9984158 42.4063166,16.0005884 42.2999254,16.0076495" id="Fill-10" fill="#FEFEFE"></path>
                        <path d="M36.9335669,26.4701199 C36.4440213,26.8433873 36.1116069,27.4209066 36.0236815,28.0521765 C35.9380252,28.6619461 36.0872147,29.2956048 36.4309744,29.7948873 C36.811606,30.349712 37.3215729,30.5957699 37.9342139,30.753438 C39.2616028,31.091469 40.6479867,31.0239822 41.998066,30.8919949 C43.2239153,30.7719521 44.1252918,29.521357 43.9857458,28.2546367 C43.8416617,26.947305 42.7071413,26.0419075 41.4801574,26.1619503 C40.9804012,26.210923 40.4823467,26.2491456 39.9820232,26.2587012 C39.51063,26.2276454 39.0511492,26.1589642 38.5888322,26.0407131 C38.494667,26.016824 38.396531,26.003685 38.2961259,26.0006988 C37.8184928,25.9863653 37.2960462,26.1942006 36.9335669,26.4701199" id="Fill-12" fill="#FEFEFE"></path>
                        <path d="M48.7708638,16.4175063 C48.2602827,16.7801896 47.9979709,17.2848642 47.8699044,17.8764948 C46.7819004,22.8814141 45.8702688,27.9243079 45.2675696,33.0090286 C45.1333245,34.1422075 45.0119982,35.2649297 45.0002026,36.4058135 C44.9968325,36.7635436 45.0355895,37.1179716 45.1097332,37.4674464 C45.1664645,37.7327171 45.24117,38.0117465 45.3231775,38.2759165 C45.4141721,38.5742083 45.5989699,38.8631442 45.7495043,39.1267638 C45.965757,39.5054073 46.279183,39.8240623 46.6139535,40.1047428 C47.1020668,40.516958 47.6693791,40.7024273 48.2732017,40.8669831 C49.3690694,41.1641743 50.5059408,40.907159 51.5737238,40.6440898 C52.113513,40.5103537 52.5982561,39.957248 52.810577,39.4822925 C53.0492975,38.9517512 53.0627782,38.3441604 52.8487723,37.8042631 C52.6336429,37.2643658 52.2045077,36.8251833 51.6630333,36.5912828 C51.4714952,36.5378985 51.278272,36.4834135 51.0861722,36.4289284 C50.7255637,36.3782958 50.3761892,36.4113171 50.0352401,36.5252404 C49.8560593,36.5577112 49.6768784,36.5841282 49.4960125,36.6006389 C49.4724213,36.4179213 49.4595023,36.2352038 49.4533237,36.0502849 C49.4830935,35.5279989 49.5471268,35.007364 49.6032963,34.4872795 C49.6853039,33.7365966 49.7762985,32.9870144 49.8717867,32.2379826 C50.0644482,30.7311134 50.2885647,29.2286469 50.5323405,27.7283819 C51.031126,24.6403455 51.6366336,21.5699205 52.3005576,18.5121537 C52.4179519,17.9722564 52.2202351,17.3415507 51.897822,16.9062207 C51.545639,16.4296141 51.0024795,16.1082074 50.4098909,16.0229025 C50.3250749,16.0107947 50.2396972,16.0036401 50.1543195,16.0008883 C49.6622744,15.9871295 49.1713526,16.1335236 48.7708638,16.4175063" id="Fill-14" fill="#FEFEFE"></path>
                        <path d="M59.0259711,16.1467847 C58.4458728,16.3602547 58.0403174,16.7661179 57.7699472,17.2860119 C56.6211587,19.4904273 56.5561329,22.0207222 56.4825511,24.4245564 C56.4477567,25.5637835 56.416955,26.704632 56.2509682,27.8357527 C56.0302228,29.3446343 55.7666973,30.8481115 55.52884,32.3553717 C55.3463115,33.5151353 55.1483822,34.6792222 55.0445691,35.8492539 C54.9578681,36.8144625 54.9744098,37.7440027 55.3063834,38.6665173 C55.6389274,39.5890319 56.4956704,40.3769794 57.455656,40.701778 C58.5975996,41.0876453 59.804569,41.0465726 60.9875816,40.872554 C61.5802287,40.7844639 62.1061388,40.5396489 62.4905894,40.0921726 C62.8750399,39.6446963 63.0552868,39.0583293 62.9851274,38.4849327 C62.848231,37.3548929 61.6925978,36.4118419 60.4668051,36.5918052 C60.1542251,36.6382822 59.8422155,36.6755719 59.5273539,36.6966487 C59.5900981,35.5460725 59.8091323,34.3965771 59.9848159,33.2616734 C60.2529046,31.5295942 60.5791742,29.8023788 60.8050531,28.0648952 C61.152998,25.3940884 60.8158908,22.6616726 61.4975205,20.0303172 C61.6184456,19.6844418 61.7604755,19.349375 61.931596,19.0207933 C62.4803221,17.9674946 61.8625774,16.6385764 60.7662658,16.1819127 C60.496466,16.0695032 60.2072724,16.0095154 59.9169381,16.0008685 C59.6146254,15.9927621 59.3111718,16.0414008 59.0259711,16.1467847" id="Fill-16" fill="#FEFEFE"></path>
                        <path d="M71.0959999,32.4398579 C71.0833491,32.492867 71.0701712,32.5453122 71.0575205,32.5983213 C71.0701712,32.5453122 71.0833491,32.492867 71.0959999,32.4398579 L71.0959999,32.4398579 Z M70.982143,21.7241233 C71.1249912,22.0376666 71.2409566,22.3630523 71.3411085,22.6963329 C71.6821522,24.1523916 71.7970633,25.6648429 71.8260546,27.1643239 C71.8244733,27.9064514 71.7939006,28.6389922 71.6932216,29.3749165 C71.5598614,30.3471261 71.3643016,31.309185 71.1386962,32.2605293 C70.7481037,33.8011769 70.2768626,35.3457721 69.5694738,36.7550248 C69.5014759,36.8723216 69.4308425,36.9873626 69.3570463,37.1001479 C69.3285821,37.0567256 69.3016992,37.0121754 69.2742892,36.9681891 C69.0397229,36.4894154 68.8594494,35.9852649 68.7092215,35.4703999 C68.3539458,33.9917841 68.2031908,32.4686182 68.1699825,30.9454523 C68.1805248,29.2192727 68.3465662,27.4953489 68.7266163,25.8171031 C68.9632911,24.9339939 69.2648011,24.0745697 69.6680444,23.2636431 C69.8889057,22.888068 70.1340143,22.5322303 70.4102228,22.2023332 C70.5878607,22.0314634 70.7734053,21.8746918 70.9700193,21.7308905 L70.982143,21.7241233 Z M70.6210689,17.1196621 C70.4223464,17.1439109 70.2278409,17.1997397 70.0370251,17.2865844 C68.8056836,17.6948673 67.7878239,18.5875632 66.952346,19.611654 C66.5195843,20.1440008 66.1985711,20.7598087 65.8722867,21.3688495 C65.5707767,21.9310844 65.3341019,22.5327942 65.1274727,23.1412711 C64.1486195,26.0235003 63.9103633,29.1228413 64.0273829,32.1652256 C64.0774589,33.4430835 64.2308494,34.7209413 64.5128562,35.9649636 C64.6609756,36.6208103 64.8370321,37.2749652 65.0600019,37.9059992 C65.2787548,38.5263185 65.5871173,39.0936287 65.9134017,39.6564275 C66.591272,40.8248836 67.6455027,41.7485955 68.935354,41.967963 C69.5220334,42.0666501 70.1772378,41.9279242 70.7154226,41.6809243 C71.3527051,41.3893742 71.8023345,40.9207511 72.2741027,40.3962993 C72.5076148,40.1380209 72.700539,39.837448 72.8808125,39.5346194 C73.189175,39.0186265 73.4643292,38.4778208 73.7126005,37.9257366 C74.135347,36.9856708 74.4584687,35.9931599 74.747328,34.9972654 C75.2828772,33.147022 75.7446302,31.2161371 75.94019,29.2852521 C76.0266369,28.4365425 75.9965914,27.5703511 75.9876304,26.7199497 C75.9760339,25.5740507 75.8985479,24.4287156 75.7367235,23.2963509 C75.6313004,22.5705773 75.4642049,21.8611575 75.2702264,21.157377 C75.1273781,20.6436398 74.9534301,20.1462565 74.710957,19.6748138 C74.5480784,19.3573231 74.3741303,19.0415242 74.1727722,18.7482823 C73.9566549,18.4336112 73.678338,18.1629264 73.4063465,17.9069037 C72.8823938,17.4134679 72.2034692,17.1732351 71.5340327,17.0294338 C71.4560197,17.0130799 71.3758981,17.0034932 71.2947224,17.0006735 C71.0712255,16.9939064 70.8403489,17.0384566 70.6210689,17.1196621 L70.6210689,17.1196621 Z" id="Fill-18" fill="#FEFEFE"></path>
                        <path d="M79.5583204,16.4643534 C79.1376231,16.8013287 78.7818548,17.3670054 78.7501952,17.9293675 C78.444331,23.3126866 77.5396171,28.7291509 78.291399,34.1168893 C78.4572095,35.3045893 79.5658329,36.1508946 80.7173845,35.9774351 C81.8721558,35.805633 82.6910131,34.6693079 82.5257392,33.481608 C82.3577822,32.283412 82.2772916,31.0802444 82.2531445,29.8715525 C82.2622667,26.0576546 82.7790162,22.2757969 82.9936577,18.4740522 C83.0285369,17.8763353 82.9244358,17.3333078 82.5595452,16.8493892 C82.2134358,16.3908817 81.6966864,16.0898136 81.1359355,16.0168943 C81.0693966,16.0080556 81.0028577,16.0030839 80.9357823,16.0008742 C80.4415702,15.9865113 79.9505778,16.1494748 79.5583204,16.4643534" id="Fill-20" fill="#FEFEFE"></path>
                        <path d="M80.1390181,37.0050582 C79.703587,37.0708144 79.3127029,37.2396308 78.965111,37.5102428 C78.4437231,37.9193222 78.1005231,38.5281993 78.0189582,39.1889226 C77.9373933,39.8496459 78.121228,40.5230147 78.5277976,41.048432 C78.8998591,41.5314871 79.5599073,41.9816641 80.1910941,42 C80.413829,41.9981032 80.6384462,41.9962064 80.8605537,41.9943096 C81.2972396,41.9285534 81.6874963,41.7603692 82.036343,41.4891249 C82.5564761,41.0800455 82.8990487,40.4718007 82.9806136,39.8110774 C83.0634333,39.1516186 82.8783437,38.4769853 82.4742838,37.951568 C82.0997127,37.4678806 81.4402919,37.0183359 80.8084776,37 C80.5863701,37.0012645 80.361753,37.0037936 80.1390181,37.0050582" id="Fill-22" fill="#FEFEFE"></path>
                    </g>
                    <g id="Group-18" transform="translate(37.000000, 41.000000)">
                        <g id="Group-3">
                            <mask id="mask-4" fill="white">
                                <use xlink:href="#path-3"></use>
                            </mask>
                            <g id="Clip-2"></g>
                            <path d="M42.4258568,4.02899341 C41.3328341,3.38218022 40.1337545,2.8136967 38.8633909,2.33956484 C35.0285386,0.912421978 30.7225159,0.3024 26.0647091,0.527894505 C24.055425,0.625213187 22.0351295,0.92429011 19.8890727,1.44114725 C18.0611864,1.88086154 16.3121182,2.53064176 14.6888114,3.37209231 C10.9797205,5.29591648 7.63226591,8.12171868 5.00866364,11.5438945 C3.67107273,13.2902901 2.5653,15.1583341 1.72206136,17.0958066 C0.855061364,19.0854989 0.30855,21.1185099 0.0970159091,23.1396527 C-0.0142568182,24.2042242 -0.0299045455,25.2943121 0.0512318182,26.3796527 C0.124834091,27.3742022 0.317243182,28.4286857 0.638311364,29.602444 C0.900845455,30.5590154 1.28624318,31.5357626 1.78407273,32.505389 C2.12252727,33.1652571 2.40360682,33.6631253 2.69453864,34.1194549 C2.992425,34.5858725 3.34420909,35.0600044 3.80147045,35.6130593 C5.49316364,37.6537846 7.58590227,39.4221363 10.2002318,41.0195868 C10.2900614,41.0747736 10.3798909,41.1287736 10.4703,41.1821802 C11.4943568,41.7880484 12.5444932,42.2906637 13.5905727,42.6757846 C14.2640045,42.924422 14.9530841,43.1202462 15.6375273,43.2567297 C16.112175,43.3516747 16.5984136,43.4216967 17.0690045,43.4899385 C17.3634136,43.5320703 17.6578227,43.5747956 17.9516523,43.6228615 C18.3700841,43.6934769 18.7560614,43.7765538 19.1304477,43.8762462 C19.3987773,43.9670374 19.6514591,44.0691033 19.9012432,44.1889714 C19.9568795,44.2162681 20.0130955,44.2388176 20.0704705,44.2578066 C20.4796295,44.5485758 20.8389477,44.8506198 21.16755,45.1823341 C21.4341409,45.4968396 21.671175,45.8362681 21.8728568,46.1905319 C22.0635273,46.5987956 22.2159477,47.0296088 22.3393909,47.5084879 C22.5717886,48.6626637 22.6169932,49.8625319 22.6604591,51.0232352 C22.6795841,51.5365319 22.6998682,52.0682242 22.7358,52.5874549 C22.7694136,53.0710813 23.0620841,53.5321582 23.4996409,53.7914769 C23.5460045,53.8187736 23.5935273,53.8431033 23.6422091,53.8650593 C24.0751295,54.0614769 24.7317545,54.0709714 25.1484477,53.7089934 C25.6990159,53.2318945 26.1510614,52.7447077 26.5324023,52.2207297 C26.9467773,51.6504659 27.3014591,51.011367 27.6231068,50.4060923 C27.880425,49.9212791 28.1220955,49.4180703 28.3556523,48.9314769 C28.6651295,48.2876308 28.9844591,47.6218286 29.3443568,46.9910374 C29.6978795,46.4338286 30.0664705,45.9591033 30.4721523,45.5401582 C31.2296182,44.8601143 32.1018341,44.315367 32.9450727,43.7890154 C33.2441182,43.6020923 33.5431636,43.4151692 33.8381523,43.2223121 C34.6466182,42.6924 35.4910159,42.0711033 36.4200273,41.3240044 C38.2647205,39.8393011 40.0839136,38.1018066 41.8271864,36.1589934 C43.5577091,34.2310154 45.0888682,32.1825758 46.3789364,30.0700484 C47.8672091,27.6311473 48.9069136,25.3868835 49.5577432,23.2078945 C49.9495159,21.8958725 50.2010386,20.717367 50.3268,19.6035429 C50.4577773,18.4404659 50.4641523,17.2370374 50.3436068,16.0276747 C50.2346523,14.9322462 49.9981977,13.8065538 49.6400386,12.6808615 C49.3427318,11.7468396 48.9063341,10.7861143 48.305925,9.74290549 C47.8538795,8.95901538 47.2847659,8.18580659 46.6153909,7.44642198 C45.8509705,6.6020044 45.0958227,5.89822418 44.3059023,5.29354286 C43.7182432,4.84492747 43.0859591,4.41945495 42.4258568,4.02899341" id="Fill-1" fill="#AB41C8" mask="url(#mask-4)"></path>
                        </g>
                        <path d="M16.7362733,15.5032716 C16.7179523,15.5511286 16.6996312,15.5983948 16.6813101,15.6462518 C16.699076,15.5983948 16.7173971,15.5505378 16.7362733,15.5032716 M15.1545546,13.0525209 C14.8142269,13.1494165 14.4111634,13.4217878 14.2629293,13.779829 C14.0180932,14.3753827 13.8049027,14.9762539 13.6433442,15.604303 C13.4823408,16.2329431 13.3790767,16.8781262 13.2891369,17.5221277 C13.1070366,18.8225381 13.0104346,20.1341742 12.8633109,21.4399021 C12.7522741,22.3225977 12.6156989,23.2017484 12.5129899,24.0862165 C12.4058394,25.0049526 12.3136789,25.9248704 12.2087491,26.8430157 C12.1593378,27.2447781 12.1065953,27.6453589 12.0477458,28.0459396 C12.0316455,28.1800574 12.0166555,28.3135843 12,28.447702 C12.0033311,28.7200733 12.0677324,28.9753106 12.193204,29.2116414 C12.3875183,29.5755909 12.7178527,29.8438264 13.0975984,29.9501753 C13.4656853,30.0523884 13.8637521,29.995669 14.1935313,29.7953786 C14.506655,29.6051323 14.8292168,29.2264121 14.886956,28.8329213 C15.1051432,27.3399013 15.2450495,25.8368372 15.415491,24.3373181 C15.5398521,23.3258221 15.696414,22.3202344 15.8107819,21.3063752 C15.9084942,20.4396318 15.9812233,19.5699344 16.0772701,18.7026002 C16.2193972,17.5693939 16.4126011,16.4432775 16.7906813,15.3703355 C16.7945676,15.3602915 16.7990091,15.3508382 16.8028954,15.3407942 C16.8528619,15.2108122 16.9028285,15.0820119 16.9533502,14.9532116 C17.0166412,14.6873394 17.0155308,14.4220581 16.9500191,14.1561859 C16.850086,13.7573776 16.6019188,13.4146979 16.2665878,13.2084992 C15.9312568,13.0028914 15.5281933,12.946172 15.1545546,13.0525209" id="Fill-4" fill="#FEFEFE"></path>
                        <path d="M21.9293192,12.0511323 C21.1747167,11.8276372 20.3772577,12.3585925 20.1808766,13.2186167 C19.1523171,17.7311197 18.8355035,22.3973527 18.0391294,26.9610991 C17.9648084,27.3870981 17.9881354,27.7945755 18.180719,28.1804442 C18.3705903,28.5595216 18.6928288,28.8410514 19.0649764,28.9509468 C19.786487,29.1657985 20.660437,28.6564518 20.8128765,27.7834624 C21.6103355,23.2190987 21.9266067,18.553483 22.9551662,14.0409801 C23.1189979,13.3223382 22.8206288,12.5709746 22.2754272,12.2128885 C22.1690994,12.142506 22.0535492,12.0875583 21.9293192,12.0511323" id="Fill-6" fill="#FEFEFE"></path>
                        <path d="M18.5174315,19.0061714 C16.8674439,19.2351108 15.2643436,19.6754329 13.7444125,20.5329023 C13.3994557,20.7274306 13.1387844,21.2351704 13.0466843,21.6768971 C12.9506769,22.1417986 13.0042624,22.6460271 13.1934863,23.0631743 C13.388292,23.4950692 13.7204106,23.8146012 14.1022075,23.9403072 C14.228915,23.9599707 14.3556224,23.9803365 14.4823298,24 C14.7390938,23.9957864 14.9802287,23.9157278 15.2051762,23.756313 C15.2375508,23.7373517 15.2699254,23.7190928 15.3023,23.7008338 C16.2668395,23.2366346 17.2782662,22.9430865 18.298624,22.7513673 C18.3767695,22.7394287 18.4549151,22.7281924 18.5330606,22.7176584 C18.6575353,22.6958881 18.7825682,22.6755223 18.9064848,22.653752 C19.1571087,22.5680753 19.3747999,22.4121718 19.5606747,22.1832324 C19.8414405,21.8349074 20.0027553,21.3482356 20,20.851732 C19.9977316,20.3706784 19.8442314,19.9022655 19.5757456,19.560261 C19.4842037,19.4429822 19.3692181,19.3313216 19.2419525,19.2386222 C19.0181213,19.075696 18.7563336,18.9731648 18.5174315,19.0061714" id="Fill-8" fill="#FEFEFE"></path>
                        <path d="M25.6016002,19.0495366 C24.6356895,18.8330981 23.5249636,19.345458 23.3031037,20.2050977 C22.7231293,22.4416281 22.5925815,24.7392994 22.0525562,26.9813325 C21.9512568,27.4007584 21.987639,27.8097903 22.2387472,28.1882519 C22.4891421,28.5642678 22.9128872,28.8430698 23.4022629,28.951289 C24.3560462,29.1646704 25.4931671,28.6584246 25.7007594,27.7963393 C26.2407848,25.5536948 26.3713325,23.2554122 26.9505936,21.0201045 C27.137498,20.3023116 26.7836637,19.5673991 26.0660077,19.2121711 C25.9247593,19.1418592 25.7699568,19.0868325 25.6016002,19.0495366" id="Fill-10" fill="#FEFEFE"></path>
                        <path d="M24.2632964,14.9970088 C23.7166618,15.9444836 24.0499571,17.1895628 24.9966978,17.7361829 C25.9441977,18.2835622 27.1893098,17.9502758 27.7367036,17.0035601 C28.2833382,16.0560852 27.9500429,14.8102469 27.0033022,14.2636268 C26.0558023,13.7162475 24.8106902,14.0502931 24.2632964,14.9970088" id="Fill-12" fill="#FEFEFE"></path>
                        <path d="M31.8095802,11.0467957 C30.9792417,10.8421836 30.056778,11.3276358 29.8561634,12.1306092 C29.3955376,13.9681059 28.9088502,15.7998711 28.5464104,17.6580009 C28.1724551,19.5745912 27.9112318,21.5421914 28.0282065,23.4931703 C28.0518439,23.8943705 28.1851829,24.2577432 28.4888322,24.5488998 C28.7894511,24.8371908 29.208863,25.0028291 29.6379722,25 C30.4761899,24.9953783 31.2798606,24.3024483 31.2307676,23.4776955 C31.1628859,22.3377139 31.2295554,21.1994518 31.3689553,20.0669211 C31.717455,17.642526 32.3599067,15.2714332 32.9550837,12.8934626 C33.1229696,12.2228852 32.8090168,11.5311016 32.200506,11.1981055 C32.0811069,11.1327671 31.9501923,11.0817574 31.8095802,11.0467957" id="Fill-14" fill="#FEFEFE"></path>
                        <path d="M28.2632982,29.9970088 C27.71666,30.9444836 28.0499574,32.1895628 28.9967044,32.7361829 C29.9434514,33.2835622 31.1893309,32.9502758 31.7367283,32.0035601 C32.2833665,31.0560852 31.9500691,29.8102469 31.0025629,29.2636268 C30.0558159,28.7162475 28.8106956,29.0502931 28.2632982,29.9970088" id="Fill-16" fill="#FEFEFE"></path>
                    </g>
                    <g id="Group-37" transform="translate(0.000000, 7.000000)">
                        <path d="M31.0342192,0 C28.6422769,0 26.1889466,0.21113817 23.7443859,0.627569854 C21.9495157,0.934414253 20.1678,1.37203281 18.4467416,1.93019739 C16.3200835,2.61913612 14.4674792,3.43811843 12.7814997,4.43170982 C9.21806843,6.53505511 6.15670384,9.55089721 3.92846306,13.1533966 C2.87171128,14.8607665 1.99327723,16.7602794 1.31654684,18.7978723 C0.688049932,20.6930018 0.273680459,22.7620097 0.085131387,24.9479108 C-0.0866090471,26.9511664 0.00181900621,29.097616 0.347492305,31.3280825 C0.522886791,32.4553704 0.752361244,33.4584594 1.04980106,34.3943348 C1.3772041,35.4229941 1.80692059,36.4341195 2.32725756,37.3992181 C2.78912971,38.2598436 3.37450881,39.1285055 4.11774294,40.0563445 C4.70458366,40.7898488 5.39812269,41.5043579 6.17935896,42.1801461 C7.0007898,42.8902717 7.86753089,43.5207639 8.75473466,44.0555499 C9.58785847,44.5581902 10.5349887,45.0169956 11.6509361,45.4568059 C12.5447172,45.8089464 13.5196182,46.0953345 14.5485992,46.3072033 C15.7661292,46.5585235 17.0085068,46.6586132 18.2786552,46.7477442 C19.8754759,46.8602538 21.1777799,46.9121251 22.3733857,46.9121251 L22.5473185,46.9121251 C23.2357419,46.9092028 23.9650906,46.8814407 24.7156329,46.8302999 C24.8932198,46.81788 25.0700759,46.7996155 25.2462012,46.7813509 C25.5531415,46.7499359 25.871044,46.7177903 26.1845617,46.7177903 C26.2788362,46.7177903 26.3738416,46.7207126 26.4688469,46.7272879 L26.5126955,46.737516 L26.5565442,46.7477442 C26.7735948,47.1108434 26.9665288,47.4922071 27.1441157,47.9130223 C27.5906408,49.1162907 27.8347315,50.3955396 28.0700524,51.6331453 L28.1475183,52.0371571 C28.4011095,53.3573186 28.7584758,54.9003076 29.4732083,56.330787 C29.6792968,56.7435658 30.1185138,57 30.6183881,57 C31.0963381,57 31.5297086,56.7625609 31.7496826,56.379736 C32.1530899,55.6747244 32.4549146,54.8572033 32.6456561,53.9512817 C32.7801252,53.3134837 32.8670916,52.65596 32.950404,52.0210843 C32.9759823,51.8267496 33.0015607,51.6331453 33.0286007,51.4395411 C33.1309141,50.7798257 33.2748838,50.0046783 33.5701312,49.257293 C33.7111776,48.9635991 33.8778023,48.685978 34.064159,48.4331966 C34.2556313,48.2154832 34.472682,48.0094591 34.7080029,47.820969 C34.938939,47.6675468 35.1691442,47.5389644 35.4117733,47.4293771 C36.2719371,47.1298385 37.1920273,47.0107537 38.0806927,46.8953217 C38.2239315,46.8763266 38.3664395,46.858062 38.5089476,46.8390669 C39.6343955,46.6871059 40.7729981,46.4109459 41.9905281,45.9952448 C44.4146261,45.1667649 46.6713685,43.8809408 48.7497931,42.6141118 C49.1853561,42.3489105 49.6223807,42.0859011 50.0594053,41.8236221 C51.4947168,40.9608049 52.9789926,40.069495 54.3741096,39.0956293 C55.4345155,38.357011 56.3202576,37.6578441 57.0824928,36.9586773 C57.898808,36.2098308 58.661774,35.3426301 59.3501973,34.3804537 C59.9801559,33.4986414 60.5165707,32.4655986 60.9879434,31.2243399 C61.3723496,30.2139451 61.6339797,29.1056524 61.8386066,27.629877 C62.1484702,25.3950269 62.0118087,22.9395411 61.4315452,20.3320943 C60.5458031,16.3460395 58.4995341,12.563817 55.5141738,9.39528326 C54.2915281,8.0977698 52.8423311,6.86966163 51.2067775,5.74383491 C49.7531957,4.74512945 48.1169113,3.85235837 46.202919,3.01511151 C42.9193881,1.57951807 39.2097947,0.637067419 35.1764523,0.214060497 C33.8222607,0.0723276083 32.4286054,0 31.0342192,0" id="Fill-1" fill="#009999"></path>
                        <g id="Group" transform="translate(10.000000, 10.975648)" fill="#FEFEFE">
                            <path d="M0.980225585,8.07287408 C0.646247532,8.16688497 0.356799886,8.39508882 0.182389126,8.69986606 C0.137116545,8.80828184 0.0918439645,8.91745577 0.0473135575,9.02587156 C-0.0157711858,9.26772215 -0.0157711858,9.50957275 0.0473135575,9.75142334 C0.923078229,15.2237669 2.25973261,20.6013413 3.38264104,26.0228887 C3.45240535,26.3587501 3.7136504,26.6688344 3.99716066,26.8379024 C4.30516264,27.0228916 4.68144458,27.0729296 5.02581306,26.9758861 C5.35979112,26.8818753 5.64923876,26.6536714 5.8243917,26.3488942 C6.01364593,26.0183398 6.03516896,25.6642826 5.95872509,25.2973369 C4.83507449,19.8757896 3.49916228,14.4982151 2.6233976,9.02587156 C2.57070329,8.69455899 2.28199782,8.3731024 2.00962016,8.21009965 C1.80403812,8.08803712 1.5695113,8.02435233 1.33350015,8.02435233 C1.2147524,8.02435233 1.09526247,8.04027353 0.980225585,8.07287408" id="Fill-19"></path>
                            <path d="M7.87319978,7.07231254 C7.26520342,7.26265463 6.85702425,8.02776988 7.04698203,8.7314361 C8.38983236,13.7200475 8.70599046,18.9559537 9.6814138,24.0374879 C9.81944541,24.7553923 10.5404962,25.1660517 11.1366613,24.9794565 C11.4324433,24.8857842 11.6887877,24.6609707 11.8439089,24.3589712 C12.0102042,24.0344904 12.0325521,23.6807839 11.962879,23.3203329 C10.9867984,18.2387986 10.6719549,13.0036418 9.32778998,8.01428107 C9.17069686,7.42676848 8.70401858,7.02435233 8.18409954,7.02435233 C8.08156177,7.02435233 7.97770942,7.0393399 7.87319978,7.07231254" id="Fill-21"></path>
                            <path d="M9.22704165,14.0855632 C7.48749407,14.7556179 5.82188699,15.6346056 4.02630029,16.1414313 C3.29000856,16.3495482 2.84714387,17.1795672 3.04872903,17.9483754 C3.25109251,18.7228966 4.0340835,19.182386 4.77115355,18.9742691 C6.56674025,18.4674434 8.23234733,17.5884557 9.97189491,16.918401 C10.326031,16.7812887 10.6132315,16.5935754 10.8085901,16.2426333 C10.9985004,15.9039333 11.0498696,15.490148 10.9502445,15.1114569 C10.854511,14.7441918 10.619458,14.4250793 10.306573,14.2332853 C10.1018745,14.1075991 9.83413208,14.0243523 9.57806445,14.0243523 C9.45586805,14.0243523 9.33678492,14.0431237 9.22704165,14.0855632" id="Fill-23"></path>
                            <path d="M16.1312469,3.08127397 C15.6121472,3.27865161 15.0945878,3.47972545 14.5855005,3.70075883 C14.2543241,3.8441718 13.9331601,4.00606581 13.633561,4.20492193 C13.434085,4.33724627 13.2415406,4.48287696 13.0620892,4.63811779 C12.8895694,4.7874447 12.7455462,4.97742991 12.6115353,5.15410877 C12.3920347,5.43945621 12.2441606,5.78098605 12.1440375,6.12029817 C12.0292811,6.50840026 11.9992442,6.93346446 12,7.3363514 C12,7.84125374 12.0824233,8.34615608 12.1540499,8.84514449 C12.341203,10.1617346 12.7147391,11.4435804 13.1190824,12.7106413 C13.5118729,13.9436971 13.9316197,15.1693605 14.2458522,16.4238543 C14.3629191,16.893273 14.449179,17.3626918 14.5169547,17.8402421 C14.5816496,18.3022684 14.6494252,18.762077 14.7587904,19.2167109 C14.8789381,19.7156993 15.0761036,20.2235586 15.3595289,20.6567545 C15.5081732,20.8851803 15.6984071,21.1106491 15.9132866,21.2880672 C16.0750239,21.4226093 16.2529349,21.5460627 16.4362372,21.6532528 C16.6149184,21.7582252 16.821326,21.8203215 17.0161809,21.8927672 C17.2064148,21.9644737 17.44594,21.9777801 17.6392546,22.0014358 C17.7724953,22.0184384 17.8980342,22.0243523 18.0312749,22.0243523 C18.378625,22.0206561 18.7336769,21.9504281 19.0710147,21.8742862 C19.631704,21.7471365 20.1638967,21.5342348 20.7315175,21.4351764 C20.8146967,21.4240878 20.8978759,21.4129991 20.9825954,21.4026497 C21.2174996,21.3390749 21.4208265,21.2244924 21.5948866,21.0603807 C21.8528961,20.8119953 22,20.4712047 22,20.1200647 C22,19.7681855 21.8528961,19.4266557 21.5948866,19.1790096 C21.3576719,18.951323 20.9610304,18.7539454 20.6136804,18.789429 C20.1099842,18.8396974 19.6394057,18.9313635 19.1557342,19.0732979 C18.8068438,19.1767918 18.4602639,19.2847212 18.1029015,19.3556884 C18.0266539,19.3601239 17.9519467,19.3608631 17.8764693,19.3593846 C17.8587552,19.3542099 17.8418113,19.3497745 17.823327,19.3445998 C17.8048427,19.3342504 17.7855883,19.3231618 17.767104,19.3120731 C17.7547812,19.3002453 17.7432285,19.2891566 17.7309057,19.2773288 C17.684695,19.2041438 17.6407949,19.1294803 17.6007457,19.0533384 C17.3573696,18.4028054 17.2703395,17.7086571 17.1748375,17.0255974 C17.0454476,16.102284 16.7966803,15.2018872 16.5286585,14.3081435 C15.919448,12.2826202 15.164674,10.3014514 14.8381187,8.20939629 C14.7865168,7.79615997 14.752629,7.38070592 14.7849765,6.96599111 C14.8019204,6.88689221 14.8234853,6.80927179 14.848131,6.73239061 C14.8673855,6.69764624 14.8889504,6.66290186 14.9105154,6.62963596 C14.9636577,6.57493205 15.0198806,6.5231851 15.0784141,6.47291664 C15.4342362,6.24005539 15.8262565,6.06189805 16.2221278,5.89704706 C16.4370074,5.81129498 16.6526571,5.72923911 16.8683068,5.64718324 C16.9792124,5.60208947 17.0893478,5.55773495 17.1994832,5.51264118 C17.4074311,5.39510169 17.5737895,5.23616464 17.6962477,5.03656928 C17.8834008,4.72830533 17.9350027,4.35424884 17.83642,4.01050127 C17.740918,3.67784233 17.5090945,3.38953792 17.1994832,3.21581603 C17.0007773,3.10419047 16.7289047,3.02435233 16.4724355,3.02435233 C16.3522878,3.02435233 16.235991,3.04209414 16.1312469,3.08127397" id="Fill-25"></path>
                            <path d="M18.4328752,11.0882295 C17.6093858,11.4611341 16.7356753,11.6070157 15.9087461,11.966109 C15.5964118,12.100769 15.3391144,12.3139806 15.169188,12.6799796 C15.0013255,13.0390729 14.9559201,13.4758546 15.0439791,13.8763817 C15.1285983,14.264824 15.3356746,14.6023372 15.6129229,14.8051904 C15.8839795,15.0045907 16.263734,15.094364 16.5671248,14.9614305 C17.394054,14.6023372 18.2677645,14.4573187 19.0912539,14.083551 C19.4042762,13.9419853 19.6588217,13.7391321 19.830812,13.3696804 C19.9986745,13.0114503 20.0440799,12.5738054 19.9560209,12.1732782 C19.8714017,11.784836 19.6643254,11.4473228 19.3870771,11.2444696 C19.2054554,11.111536 18.9701727,11.0243523 18.7438336,11.0243523 C18.6365116,11.0243523 18.5305656,11.044206 18.4328752,11.0882295" id="Fill-27"></path>
                            <path d="M26.6123274,1.70477226 C26.3800484,2.16684274 26.2556897,2.67658106 26.1549164,3.18708822 C26.0276989,3.83291052 25.9390756,4.48795886 25.8440198,5.13993185 C25.7489641,5.80113088 25.6553378,6.46156107 25.5402704,7.11891592 C25.5352674,7.14274983 25.5316939,7.16658375 25.526691,7.19041767 C25.1779151,6.57996183 24.8663039,5.94336555 24.5554073,5.31368881 C24.3288459,4.85469367 24.1072875,4.39262318 23.8807261,3.93285921 C23.7306381,3.62763129 23.5855531,3.3124085 23.3975858,3.03178333 C23.1946096,2.72809308 22.9744806,2.49821109 22.6285635,2.39595589 C22.2969406,2.29754487 21.9353,2.34828805 21.6379829,2.53588406 C21.3506716,2.71656054 21.1355455,3.01640661 21.0469221,3.36238284 C20.9625869,3.69144468 20.9840281,4.14044495 21.1762836,4.42875848 C21.4543038,4.84392996 21.6579946,5.32599018 21.8788383,5.77729696 C22.2376201,6.51384192 22.5949724,7.25115572 22.9766247,7.97386163 C23.3554182,8.68887919 23.7663734,9.37468097 24.2480843,10.0143526 C24.4567781,10.2911336 24.6969189,10.50487 24.9649331,10.7139934 C25.3465854,11.0107641 25.8554551,11.0845724 26.3057191,10.978473 C26.7466918,10.8746802 27.0568737,10.5371611 27.3120232,10.1627379 C27.4871259,9.9059467 27.5893287,9.58611089 27.690102,9.290109 C27.9166634,8.61583976 28.0210103,7.88698316 28.1317895,7.18272931 C28.2568628,6.38929048 28.360495,5.5927763 28.4841389,4.79856863 C28.5713329,4.2373183 28.6528092,3.65300288 28.8293413,3.11097344 C28.8307707,3.10712926 28.8322001,3.10405392 28.8336295,3.10097857 C29.1673966,2.43824188 28.9915792,1.59790404 28.372645,1.20810415 C28.1761012,1.08432154 27.9516839,1.02435233 27.7279814,1.02435233 C27.2805762,1.02435233 26.8353152,1.26269151 26.6123274,1.70477226" id="Fill-29"></path>
                            <path d="M25.1184842,8.07052395 C24.733769,8.15998145 24.4003491,8.37713233 24.1985874,8.6671478 C23.9754525,8.98818482 23.9669033,9.31210756 24.0438464,9.66777329 C24.7209451,12.798786 25.1655049,15.9651489 25.9845208,19.0737972 C26.1666193,19.7649286 27.09934,20.1617159 27.8773196,19.9806366 C28.2611799,19.8911791 28.5945997,19.6740282 28.7972164,19.3840128 C29.0135118,19.0723544 29.0425792,18.7311173 28.9511025,18.3841087 C28.1320866,15.2747389 27.6875268,12.1083761 27.0112829,8.97736334 C26.9428891,8.65993348 26.623148,8.35837511 26.3042619,8.20110305 C26.0674483,8.08495258 25.7964378,8.02435233 25.5254273,8.02435233 C25.3877848,8.02435233 25.2509972,8.03950239 25.1184842,8.07052395" id="Fill-31"></path>
                            <path d="M31.000544,1.3229287 C31.0598864,3.20514302 31.4436853,5.06282867 31.8991575,6.89237849 C32.3291973,8.61732078 32.8108726,10.3314416 33.0829229,12.0859626 C33.1545961,12.6306432 33.2039197,13.1774882 33.2254988,13.725776 C33.2540139,14.4335001 33.8351071,15.0243523 34.6127238,15.0243523 C35.347953,15.0243523 36.0269226,14.4335001 35.9991781,13.725776 C35.9275048,11.8998333 35.5544954,10.0998621 35.1136661,8.32369823 C34.6851677,6.59731308 34.201951,4.88247084 33.9260474,3.12722844 C33.8466673,2.52771901 33.7934903,1.92676672 33.774994,1.3229287 C33.7518736,0.615926011 33.1607616,0.024352329 32.387769,0.024352329 C31.6479156,0.024352329 30.9781942,0.61520458 31.000544,1.3229287" id="Fill-33"></path>
                            <path d="M34,18.0240745 C34,18.5692259 34.454015,19.0243523 34.9997221,19.0243523 C35.5448736,19.0243523 36,18.5692259 36,18.0240745 C36,17.478923 35.5448736,17.0243523 34.9997221,17.0243523 C34.454015,17.0243523 34,17.478923 34,18.0240745" id="Fill-35"></path>
                        </g>
                    </g>
                </g>
            </g>
        </g>
    </g>
</svg>