<?xml version="1.0" encoding="UTF-8"?>
<svg width="147px" height="57px" viewBox="0 0 147 57" version="1.1" xmlns="http://www.w3.org/2000/svg" xmlns:xlink="http://www.w3.org/1999/xlink">
    <title>Group 8</title>
    <g id="Mobile-App" stroke="none" stroke-width="1" fill="none" fill-rule="evenodd">
        <g id="Empty-Carousel---Only-1-member-(self)" transform="translate(-173.000000, -726.000000)">
            <g id="Group-7" transform="translate(61.000000, 313.000000)">
                <g id="Featured-Members-Copy" transform="translate(24.000000, 355.000000)">
                    <g id="MEMBER-1" transform="translate(0.000000, 34.000000)">
                        <g id="Group-8" transform="translate(88.000000, 24.000000)">
                            <g id="Group-5-Copy">
                                <circle id="Oval-Copy" stroke="#000000" stroke-width="3" fill="#FFFFFF" cx="28.5" cy="28.5" r="27"></circle>
                                <circle id="Oval" fill="#000000" cx="18" cy="20" r="4"></circle>
                                <circle id="Oval-Copy-3" fill="#000000" cx="39" cy="20" r="4"></circle>
                                <path d="M26.9528549,31.8622324 L29.9528549,31.8622324 C36.5802719,31.8622324 41.9528549,37.2348154 41.9528549,43.8622324 L41.9528549,43.8622324 L41.9528549,43.8622324 L14.9528549,43.8622324 C14.9528549,37.2348154 20.3254379,31.8622324 26.9528549,31.8622324 Z" id="Rectangle" fill="#000000" transform="translate(28.452855, 37.862232) rotate(-180.000000) translate(-28.452855, -37.862232) "></path>
                            </g>
                            <g id="Group-5-Copy-2" transform="translate(90.000000, 0.000000)">
                                <circle id="Oval-Copy" stroke="#000000" stroke-width="3" fill="#FFFFFF" cx="28.5" cy="28.5" r="27"></circle>
                                <circle id="Oval" fill="#000000" cx="18" cy="20" r="4"></circle>
                                <circle id="Oval-Copy-3" fill="#000000" cx="39" cy="20" r="4"></circle>
                                <path d="M26.9528549,31.8622324 L29.9528549,31.8622324 C36.5802719,31.8622324 41.9528549,37.2348154 41.9528549,43.8622324 L41.9528549,43.8622324 L41.9528549,43.8622324 L14.9528549,43.8622324 C14.9528549,37.2348154 20.3254379,31.8622324 26.9528549,31.8622324 Z" id="Rectangle" fill="#000000" transform="translate(28.452855, 37.862232) rotate(-180.000000) translate(-28.452855, -37.862232) "></path>
                            </g>
                            <g id="Group-5" transform="translate(45.000000, 0.000000)">
                                <circle id="Oval-Copy" stroke="#000000" stroke-width="3" fill="#FFFFFF" cx="28.5" cy="28.5" r="27"></circle>
                                <circle id="Oval" fill="#000000" cx="18" cy="20" r="4"></circle>
                                <circle id="Oval-Copy-3" fill="#000000" cx="39" cy="20" r="4"></circle>
                                <path d="M26.9528549,31.8622324 L29.9528549,31.8622324 C36.5802719,31.8622324 41.9528549,37.2348154 41.9528549,43.8622324 L41.9528549,43.8622324 L41.9528549,43.8622324 L14.9528549,43.8622324 C14.9528549,37.2348154 20.3254379,31.8622324 26.9528549,31.8622324 Z" id="Rectangle" fill="#000000" transform="translate(28.452855, 37.862232) rotate(-180.000000) translate(-28.452855, -37.862232) "></path>
                            </g>
                        </g>
                    </g>
                </g>
            </g>
        </g>
    </g>
</svg>