<?xml version="1.0" encoding="UTF-8"?>
<svg width="300px" height="167px" viewBox="0 0 300 167" version="1.1" xmlns="http://www.w3.org/2000/svg" xmlns:xlink="http://www.w3.org/1999/xlink">
    <title>Group 131</title>
    <defs>
        <polygon id="path-1" points="0 0.0943777386 50.0309572 0.0943777386 50.0309572 49.3000196 0 49.3000196"></polygon>
    </defs>
    <g id="Mobile-App" stroke="none" stroke-width="1" fill="none" fill-rule="evenodd">
        <g id="Update-App-messaging-iOS+Android" transform="translate(-68.000000, -227.000000)">
            <g id="Group-131" transform="translate(68.000000, 227.000000)">
                <polygon id="Fill-1" fill="#BDE1E2" points="9.12162162 167 300 167 300 165 9.12162162 165"></polygon>
                <polygon id="Fill-2" fill="#969BC8" points="122.08756 9 122.635135 14 119.594595 11.4814156"></polygon>
                <polygon id="Fill-3" fill="#6A70A4" points="122.992095 13 124.662162 6.90381528 107.432432 1 122.403776 7.95333486"></polygon>
                <polygon id="Fill-4" fill="#D2D7EB" points="116.87183 16 123.474515 8.80176157 109.735225 1.36213843 125.547157 7.67893542 127.993019 5.55021236 129.72973 4.0386401 107.432432 0"></polygon>
                <g id="Group-130" transform="translate(0.000000, 8.000000)">
                    <path d="M130.264524,8.11717637 L129.987206,7.86344651 C129.372108,7.3006063 128.725753,6.75402945 128.065986,6.23902268 L127.769307,6.00740251 L128.240553,5.42436594 L128.537232,5.65587982 C129.212358,6.1830044 129.873964,6.74233683 130.503554,7.31835782 L130.780873,7.57208768 L130.264524,8.11717637 Z M133.644694,11.8260755 L133.411396,11.532697 C132.892884,10.8804614 132.341492,10.2406625 131.772578,9.63115809 L131.516567,9.35670041 L132.07499,8.85338626 L132.331001,9.12784394 C132.913326,9.75169838 133.477698,10.4065914 134.008432,11.0741337 L134.24173,11.3675122 L133.644694,11.8260755 Z M136.390623,16.0112894 L136.20697,15.6855968 C135.798996,14.961611 135.356736,14.2447471 134.892411,13.5550951 L134.683341,13.2444966 L135.315311,12.8336605 L135.524382,13.144259 C135.999522,13.850068 136.452165,14.5837268 136.869874,15.3248263 L137.053419,15.650519 L136.390623,16.0112894 Z M138.437632,20.5665217 L138.30795,20.2166997 C138.019707,19.4393531 137.696637,18.6634946 137.34761,17.9108087 L137.190564,17.5719353 L137.880074,17.2631439 L138.037121,17.6020173 C138.39426,18.3723483 138.724901,19.1662773 139.019849,19.9618006 L139.149531,20.3116225 L138.437632,20.5665217 Z M139.739968,25.3788852 L139.666961,25.013544 C139.505156,24.2021825 139.308524,23.3865691 139.082473,22.5891324 L138.980912,22.2304878 L139.710874,22.0307566 L139.812543,22.3894012 C140.043678,23.2053334 140.244852,24.0399739 140.410551,24.8702563 L140.48345,25.2355975 L139.739968,25.3788852 Z M140.266701,30.3311351 L140.252424,29.9589909 C140.220517,29.1325352 140.155081,28.2968318 140.057846,27.4751594 L140.014042,27.1052475 L140.766717,27.0192536 L140.810413,27.3890592 C140.909919,28.2299712 140.976978,29.0851269 141.009533,29.9308223 L141.023918,30.3028602 L140.266701,30.3311351 Z M140.001928,35.3021994 L140.047031,34.9325 C140.146861,34.1121032 140.214784,33.276825 140.248854,32.4498378 L140.264213,32.0777999 L141.021323,32.1078819 L141.005964,32.4800261 C140.971029,33.3263592 140.901591,34.1813023 140.799273,35.0209387 L140.754279,35.3906381 L140.001928,35.3021994 Z M138.94814,40.1695183 L139.051648,39.8112989 C139.281484,39.0157756 139.481794,38.2014377 139.647168,37.3913517 L139.721582,37.0262231 L140.464522,37.1725934 L140.390001,37.5377221 C140.220841,38.3670477 140.015773,39.2004127 139.780528,40.0146442 L139.67702,40.3728636 L138.94814,40.1695183 Z M137.129346,44.8154215 L137.288663,44.477611 C137.642991,43.7264133 137.971036,42.9527871 138.263605,42.178523 L138.395558,41.8295515 L139.105835,42.0888087 L138.973882,42.4377803 C138.674391,43.2302211 138.338775,44.0219177 137.976011,44.790867 L137.816802,45.1285711 L137.129346,44.8154215 Z" id="Fill-5" fill="#C6BED0"></path>
                    <path d="M135.893884,48.5472275 L135.249042,48.1561625 L135.447946,47.8392925 C135.681568,47.4673609 135.910107,47.0861814 136.127398,46.7064902 L136.312998,46.3819668 L136.973522,46.7469892 L136.787814,47.0715125 C136.565548,47.4599201 136.331709,47.8498158 136.092787,48.2303575 L135.893884,48.5472275 Z" id="Fill-7" fill="#B4B9E6"></path>
                    <path d="M105.04906,134.248734 C105.538694,134.114694 106.172611,134.061439 106.878454,134.296354 C106.880509,134.297098 106.882456,134.29763 106.884619,134.298374 C108.2989,135.174364 109.972761,135.682355 111.768085,135.682355 C116.834771,135.682355 120.9422,131.645637 120.9422,126.666176 C120.9422,121.686608 116.834771,117.64989 111.768085,117.64989 C109.972761,117.64989 108.299008,118.158094 106.884619,119.033977 C106.882456,119.034721 106.880509,119.035253 106.878454,119.035891 C106.172611,119.270806 105.538694,119.217551 105.04906,119.083511 L105.04906,115.213467 L105.04906,96.4894363 L82.0592074,96.4894363 C81.9227113,96.0082318 81.8686321,95.3852278 82.1075543,94.6915365 C82.1084195,94.6895169 82.1089603,94.6876035 82.1096093,94.6854776 C83.0009437,93.2955439 83.5179415,91.6504986 83.5179415,89.8860822 C83.5179415,84.9066204 79.4105131,80.8699028 74.3438267,80.8699028 C69.2770321,80.8699028 65.1694956,84.9066204 65.1694956,89.8860822 C65.1694956,91.6504986 65.6867097,93.2954376 66.577936,94.6854776 C66.5785849,94.6876035 66.5791257,94.6894106 66.5797747,94.6915365 C66.818805,95.3852278 66.7647257,96.0082318 66.6283378,96.4894363 L43.6383767,96.4894363 L43.6383767,119.083511 L43.6383767,134.24884 L43.6383767,156.842809 L62.2631677,156.842809 C62.2667369,156.857796 62.2686837,156.865875 62.2686837,156.865875 L94.6942871,156.865875 C94.6942871,156.865875 94.688771,156.858009 94.6781714,156.842809 L105.04906,156.842809 L105.04906,139.191417 L105.04906,134.248734 Z" id="Fill-9" fill="#F7941E"></path>
                    <path d="M69.756434,134.195479 L66.4696044,132.682029 C65.6467343,132.302975 65.0301225,131.313461 65.065923,130.42918 C65.0808488,130.059905 65.430958,127.346686 66.4212575,126.867501 L69.6686093,125.295907 C70.1875539,125.044728 70.4704966,124.377186 70.2864108,123.838156 L68.6558128,119.064378 C68.471727,118.525348 67.8362956,118.160751 67.268247,118.268217 L63.6927422,118.944476 C62.800867,119.113274 61.7124677,118.675226 61.2149384,117.947308 C61.0053272,117.640642 59.6610248,115.247907 60.1776981,114.28401 L61.874381,111.11903 C62.1440202,110.616035 61.9736705,109.912564 61.5024238,109.582832 L57.3280453,106.662547 C56.8567986,106.332922 56.1246735,106.404991 55.729354,106.820079 L53.2515502,109.422006 C52.631261,110.073285 51.500031,110.330735 50.6692653,110.011633 L49.383044,109.614402 C48.5159371,109.40925 47.7378446,108.562067 47.6081625,107.679168 L47.0898668,104.152142 C47.0071256,103.589408 46.4485949,103.118727 45.8701631,103.124206 L40.7464771,103.173151 C40.1680453,103.178572 39.6189244,103.659882 39.5473235,104.224105 L39.0970595,107.773984 C39.0464413,108.172809 38.8641942,108.570996 38.6006118,108.910188 C38.2788402,109.324425 37.8357147,109.650862 37.3628456,109.783308 C37.0017043,109.884502 34.2742706,110.401528 33.5012615,109.620993 L30.9621319,107.056482 C30.5587005,106.648941 29.8252775,106.590797 29.3606285,106.929458 L25.2447637,109.928721 C24.7800065,110.267595 24.6236093,110.973935 24.9030909,111.471722 L26.6521225,114.586105 C27.0908135,115.367384 27.0039622,116.517938 26.455923,117.211204 C26.2234903,117.503945 24.3200083,119.513481 23.2285805,119.328525 L19.6515616,118.722422 C19.0814579,118.625799 18.4533814,119.002513 18.2798951,119.544838 L16.7439358,124.348911 C16.5704495,124.891236 16.8665875,125.553251 17.3903993,125.794544 L20.6772289,127.3081 C21.500099,127.686941 22.1166027,128.676456 22.0808022,129.560843 C22.0658763,129.93033 21.715659,132.643549 20.7254676,133.122628 L17.478224,134.694222 C16.9593876,134.945295 16.6764448,135.612943 16.8604225,136.151867 L18.4911287,140.925751 C18.6752145,141.464781 19.3106459,141.829272 19.8786945,141.721806 L23.4539829,141.045654 C24.3458582,140.876961 25.4343656,141.314903 25.9318949,142.042715 C26.1416143,142.349381 27.4858085,144.742116 26.9691352,145.706013 L25.2724523,148.871099 C25.0028131,149.374094 25.1731628,150.077565 25.6444095,150.407297 L29.818788,153.327476 C30.2900347,153.657207 31.0221598,153.585032 31.4174793,153.169944 L33.8953912,150.568123 C34.5155723,149.916845 35.6469105,149.659394 36.4776762,149.978497 L37.7638974,150.375727 C38.6308962,150.580985 39.4089887,151.428063 39.5387789,152.310962 L40.0570746,155.837987 C40.1397077,156.400721 40.6982384,156.871402 41.2766702,156.865923 L46.4003562,156.816979 C46.9788962,156.811451 47.5279089,156.330247 47.5995098,155.766025 L48.0497738,152.216145 C48.1620424,151.33027 48.9238029,150.447796 49.7838795,150.206822 C50.1449127,150.105627 52.8724546,149.588388 53.6454636,150.369136 L56.1847014,152.933647 C56.5881328,153.341082 57.3215558,153.399226 57.786313,153.060671 L61.9020696,150.061514 C62.3668268,149.722534 62.523224,149.016194 62.2437424,148.518407 L60.4947108,145.403812 C60.0592645,144.628379 60.1410324,143.486541 60.6789047,142.794232 C60.6829066,142.789023 60.6868003,142.784027 60.6909103,142.778819 C60.9234512,142.486184 62.826825,140.476648 63.9182528,140.661604 L67.4952717,141.267707 C68.0653754,141.364224 68.6937764,140.987828 68.8669382,140.445291 L70.4028975,135.641112 C70.5763838,135.098787 70.2802458,134.436772 69.756434,134.195479" id="Fill-11" fill="#F7941E"></path>
                    <path d="M43.5734058,120.798606 C38.4135949,120.798606 34.2158541,124.924082 34.2158541,129.995065 C34.2158541,135.066048 38.4135949,139.191417 43.5734058,139.191417 C48.7332167,139.191417 52.9309575,135.066048 52.9309575,129.995065 C52.9309575,124.924082 48.7332167,120.798606 43.5734058,120.798606 M43.5734058,139.786465 C38.0798177,139.786465 33.6103827,135.394079 33.6103827,129.995065 C33.6103827,124.59605 38.0798177,120.203558 43.5734058,120.203558 C49.066994,120.203558 53.5363208,124.59605 53.5363208,129.995065 C53.5363208,135.394079 49.066994,139.786465 43.5734058,139.786465" id="Fill-13" fill="#FFCC02"></path>
                    <path d="M57.069568,153.599882 C56.6573759,153.599882 56.2444266,153.448197 55.9536965,153.154499 L53.4144586,150.590095 L53.8764037,150.14822 L56.4157497,152.712731 C56.7074533,153.007491 57.2581965,153.051073 57.5943532,152.806272 L61.7101098,149.807008 C62.0461584,149.561995 62.1636185,149.031362 61.9615784,148.671442 L60.2125468,145.556847 C59.7138278,144.668633 59.8041402,143.398283 60.4226988,142.602016 L60.4363268,142.584689 C60.4566606,142.558966 62.584896,140.112444 63.9730026,140.349486 L67.5500216,140.955589 C67.9622137,141.024681 68.4342176,140.742677 68.559357,140.350442 L70.0954245,135.546157 C70.2208884,135.153923 69.9985144,134.656774 69.6197432,134.482235 L66.3328055,132.968785 C65.3856612,132.53265 64.7026401,131.435457 64.7438485,130.416605 C64.7451464,130.385141 65.0204098,127.192312 66.2789425,126.583339 L69.5261861,125.011638 C69.9016044,124.830083 70.1140277,124.328683 69.9808846,123.939 L68.3502866,119.165222 C68.2170352,118.775326 67.739948,118.501081 67.3291619,118.579315 L63.7536571,119.255467 C62.7277734,119.450203 61.521265,118.963258 60.9473759,118.123941 C60.9295297,118.097792 59.2360916,115.360974 59.8925057,114.136332 L61.5891886,110.971352 C61.7843066,110.607605 61.656355,110.079312 61.3154393,109.840888 L57.141169,106.920603 C56.8003614,106.682074 56.2504835,106.736392 55.9646205,107.036573 L53.4868167,109.638394 C52.7756743,110.385127 51.5207109,110.672978 50.5625344,110.310719 L49.2863719,109.916572 L49.4796512,109.312169 L50.7865308,109.716734 C51.4899938,109.986834 52.4904603,109.757552 53.0162189,109.205554 L55.4940227,106.603627 C56.0023678,106.069912 56.9089526,105.980729 57.5149649,106.404534 L61.6892352,109.324819 C62.2953556,109.748729 62.5062648,110.61983 62.1595085,111.266644 L60.4628256,114.431624 C60.0809179,115.144236 61.1157787,117.234132 61.4824361,117.770717 C61.9062012,118.390639 62.8703264,118.777452 63.6317625,118.63342 L67.2073754,117.957268 C67.9374454,117.819188 68.7245151,118.270524 68.9612741,118.963577 L70.5919803,123.737249 C70.8287393,124.430408 70.4784138,125.25697 69.8109675,125.580112 L66.5636158,127.151706 C65.8315988,127.505886 65.4139987,129.795301 65.3879325,130.441797 C65.3574318,131.19544 65.9039569,132.071642 66.6063384,132.395209 L69.893168,133.908659 C70.5667793,134.218939 70.9333286,135.038698 70.7103057,135.736109 L69.1743464,140.540288 C68.9518643,141.237593 68.1735555,141.704235 67.440457,141.579762 L63.8635462,140.973659 C63.057657,140.838662 61.3517806,142.461704 60.9449964,142.973735 L60.9352621,142.986065 C60.4775352,143.57548 60.4065832,144.591249 60.776918,145.250819 L62.5258415,148.365415 C62.8851441,149.005213 62.6915403,149.880247 62.0941808,150.31585 L57.978316,153.315113 C57.7155989,153.506447 57.3928539,153.599882 57.069568,153.599882" id="Fill-15" fill="#FFCC02"></path>
                    <path d="M173.178714,117.649869 C171.383499,117.649869 169.709638,118.158072 168.295249,119.033956 C168.293194,119.0347 168.291247,119.035232 168.289083,119.035869 C167.583241,119.270785 166.949432,119.21753 166.45969,119.08349 L166.45969,96.489415 L143.41976,96.489415 C143.324256,96.0410562 143.311493,95.4941605 143.518292,94.8940102 C143.519049,94.8919905 143.51959,94.8900772 143.520347,94.8879513 C144.411573,93.4980176 144.928571,91.8529722 144.928571,90.0886622 C144.928571,85.1090941 140.821143,81.0723764 135.754456,81.0723764 C130.687662,81.0723764 126.580233,85.1090941 126.580233,90.0886622 C126.580233,91.8529722 127.097339,93.4980176 127.988566,94.8879513 C127.989323,94.8900772 127.989755,94.8919905 127.990512,94.8940102 C128.197203,95.4941605 128.184441,96.0410562 128.089045,96.489415 L105.049114,96.489415 L105.049114,119.08349 C105.538748,119.21753 106.172557,119.270785 106.8784,119.035869 C106.880563,119.035232 106.88251,119.0347 106.884565,119.033956 C108.298954,118.158072 109.972815,117.649869 111.768031,117.649869 C116.834825,117.649869 120.942254,121.686586 120.942254,126.666154 C120.942254,131.645722 116.834825,135.682334 111.768031,135.682334 C109.972815,135.682334 108.298954,135.174343 106.884565,134.298353 C106.88251,134.297609 106.880563,134.297077 106.8784,134.296333 C106.172557,134.061418 105.538748,134.114672 105.049114,134.248712 L105.049114,156.842894 L128.038968,156.842894 C128.175355,156.361583 128.229543,155.738685 127.990512,155.044994 C127.989755,155.042868 127.989323,155.040955 127.988566,155.038935 C127.097339,153.648895 126.580233,152.00385 126.580233,150.23954 C126.580233,145.260078 130.687662,141.22336 135.754456,141.22336 C140.821143,141.22336 144.928571,145.260078 144.928571,150.23954 C144.928571,152.003956 144.411573,153.649001 143.520347,155.038935 C143.51959,155.041061 143.519049,155.042974 143.518292,155.044994 C143.279262,155.738685 143.333449,156.361583 143.469837,156.842894 L166.45969,156.842894 L166.45969,134.248712 C166.949432,134.114672 167.583241,134.061418 168.289083,134.296333 C168.291247,134.297077 168.293085,134.297609 168.295249,134.298353 C169.709529,135.174343 171.383391,135.682334 173.178714,135.682334 C178.245509,135.682334 182.352829,131.645722 182.352829,126.666154 C182.352829,121.686586 178.245509,117.649869 173.178714,117.649869" id="Fill-17" fill="#F46F13"></path>
                    <path d="M250.022528,124.942939 C248.905142,124.325568 248.142625,122.870262 248.286692,121.629888 C248.346936,121.111798 249.127192,117.330618 250.571216,116.757998 L255.306397,114.879632 C256.063074,114.579344 256.532049,113.669233 256.330226,112.892099 L254.542473,106.009079 C254.340649,105.231945 253.485332,104.653904 252.674792,104.746913 L247.572954,105.33197 C246.30036,105.478021 244.81556,104.750315 244.192783,103.675444 C243.930499,103.222515 242.292979,99.7185553 243.122122,98.4154659 L245.844797,94.1364984 C246.277431,93.4565194 246.112381,92.4494659 245.484304,91.9373292 L239.921387,87.4014429 C239.29331,86.8893062 238.255745,86.915774 237.655574,87.4592682 L233.893712,90.86586 C232.952083,91.7184646 231.333167,91.96486 230.198259,91.4309324 L228.431057,90.7402175 C227.232877,90.3627584 226.228084,89.0913454 226.139178,87.8358769 L225.784093,82.8208058 C225.727418,82.0207117 224.991616,81.3012967 224.177182,81.2497429 L216.963873,80.7937307 C216.149547,80.7420705 215.32592,81.363055 215.165305,82.1493305 L214.15532,87.0975411 C214.041862,87.6533657 213.743345,88.1948404 213.33656,88.6451125 C212.839896,89.1948783 212.18186,89.6086907 211.502516,89.7466636 C210.983788,89.8520035 207.091919,90.2999372 206.087235,89.1225966 L202.786993,85.2546779 C202.262641,84.6400712 201.236974,84.4831775 200.547355,84.9119778 L194.438885,88.7097408 C193.74905,89.1389663 193.45421,90.1166819 193.794585,90.8455573 L195.924875,95.4062107 C196.459287,96.5502804 196.214957,98.1600353 195.370563,99.0791816 C195.012342,99.467164 192.121481,102.099279 190.605531,101.727241 L185.637593,100.508126 C184.845764,100.313922 183.922199,100.779501 183.620653,101.52464 L180.950219,108.125974 C180.648673,108.871219 180.994996,109.832884 181.706355,110.225969 L186.169949,112.692049 C187.287335,113.309207 188.049745,114.764513 187.905569,116.004993 C187.845433,116.523189 187.064961,120.304476 185.621153,120.876989 L180.886189,122.755356 C180.129512,123.055431 179.660644,123.965648 179.86236,124.742782 L181.650221,131.626015 C181.851936,132.403043 182.707254,132.980977 183.517794,132.887968 L188.619524,132.302911 C189.892117,132.156966 191.376917,132.884672 191.999802,133.959437 C192.262195,134.412473 193.899607,137.916326 193.070464,139.219415 L190.347789,143.498383 C189.915047,144.178362 190.080097,145.185521 190.708173,145.697658 L196.072187,149.627973 C196.700264,150.140004 198.846454,150.921283 199.446625,150.377789 L202.298982,146.769127 C203.240502,145.916417 204.859419,145.670021 205.994327,146.204055 L207.761637,146.894664 C208.959709,147.272229 209.964502,148.543642 210.053408,149.79911 L210.408493,154.814182 C210.465059,155.614276 211.20097,156.333691 212.015296,156.385138 L219.228713,156.841257 C220.043146,156.892704 220.866557,156.271932 221.027173,155.485551 L222.037157,150.537553 C222.28895,149.302812 223.45425,148.13929 224.689853,147.888324 C225.208473,147.782984 229.100558,147.334838 230.105243,148.512284 L233.405592,152.38031 C233.929945,152.99481 234.955612,153.15181 235.645339,152.72301 L241.7537,148.925247 C242.443427,148.496021 242.738376,147.518305 242.397892,146.78943 L240.267602,142.228564 C239.737301,141.092998 239.973411,139.495042 240.803419,138.576108 C240.809693,138.569199 240.815749,138.562503 240.822023,138.5557 C241.180244,138.167717 244.071105,135.535602 245.586947,135.90764 L250.554993,137.126755 C251.346821,137.320959 252.270711,136.855699 252.571825,136.110241 L255.242259,129.508907 C255.543805,128.763662 255.197481,127.801997 254.486123,127.408912 L250.022528,124.942939 Z" id="Fill-19" fill="#A193B1"></path>
                    <path d="M219.36774,107.005332 C212.740434,106.316318 206.778303,111.054593 206.077219,117.567808 C205.376027,124.081022 210.19741,129.940619 216.824824,130.629634 C223.45213,131.318648 229.414153,126.580267 230.115237,120.066946 C230.81632,113.553731 225.995045,107.694347 219.36774,107.005332 M216.712015,131.677292 C209.496868,130.927158 204.247826,124.547877 205.011101,117.457047 C205.774375,110.366004 212.265401,105.207539 219.480549,105.957674 C226.695588,106.707808 231.944522,113.086877 231.181247,120.177813 C230.417972,127.268749 223.927163,132.427427 216.712015,131.677292" id="Fill-21" fill="#C8BDD2"></path>
                    <path d="M281.246533,155.4614 C281.583447,154.788968 284.516166,152.393575 284.957777,152.035143 C285.871717,152.387198 287.89201,151.773016 288.569515,150.924026 C289.465825,151.754308 289.758285,153.543917 289.758285,153.543917 L281.495839,156.947213 C281.495839,156.947213 280.882039,156.188681 281.246533,155.4614" id="Fill-23" fill="#422E27"></path>
                    <path d="M284.957701,152.035197 L284.957701,152.035197 C285.871749,152.387251 287.891934,151.773069 288.569547,150.923972 L288.569547,150.923972 C288.569547,150.923972 279.002601,136.588714 278.238136,134.993203 C273.386469,124.86835 274.697891,124.321348 271.032399,117.23764 C271.01531,117.204688 270.997896,117.172905 270.980591,117.140804 C270.297461,117.799311 270.759947,117.229987 268.287551,118.587606 C265.497494,120.119552 262.191737,120.479047 260.750957,120.56334 C260.703151,120.629882 260.678058,120.66581 260.678058,120.66581 C260.678058,120.66581 265.446551,131.408139 270.388747,137.408048 C275.330943,143.408062 284.957701,152.035197 284.957701,152.035197 Z" id="Fill-25" fill="#153C55"></path>
                    <path d="M245.777803,155.377872 C246.35299,154.885719 249.99988,153.790546 250.548027,153.627806 C251.252572,154.299706 253.357337,154.500713 254.316162,153.97497 C254.816287,155.081199 254.382139,156.842851 254.382139,156.842851 L245.423368,156.842851 C245.423368,156.842851 245.155567,155.910205 245.777803,155.377872" id="Fill-27" fill="#422E27"></path>
                    <path d="M260.770058,120.644221 L258.725104,120.625938 C256.414405,124.007231 253.070576,129.547195 251.828051,133.351336 C249.952041,139.094432 250.547995,153.627721 250.547995,153.627721 C251.252648,154.299621 253.357304,154.500628 254.316238,153.974992 C254.316238,153.974992 256.136762,143.435157 257.185684,139.657484 C257.185684,139.657484 260.210554,133.351336 265.423038,129.906158 L260.770058,120.644221 Z" id="Fill-29" fill="#0B324B"></path>
                    <path d="M260.682265,120.675313 L260.682265,120.675313 C260.672747,120.682647 261.503729,126.507592 263.172832,131.668714 C263.889274,131.012333 264.619993,130.395069 265.406846,129.935974 C262.737061,125.268706 260.78069,120.896197 260.682265,120.675313" id="Fill-31" fill="#000000"></path>
                    <path d="M254.328449,97.7107517 L254.96388,97.4478804 C254.918129,97.3951573 254.891306,97.3641187 254.891306,97.3641187 L244.989068,95.4812879 L243.978651,97.0691458 L243.122035,98.4153915 L249.311299,101.166878 C253.043201,99.6309988 254.328449,97.7107517 254.328449,97.7107517" id="Fill-33" fill="#009999"></path>
                    <path d="M258.299025,93.9658074 C258.299025,93.9658074 256.779289,93.7789381 256.430045,93.2052557 C256.080909,92.6314669 256.589903,92.3937878 256.321021,91.6660817 C256.052139,90.9382692 254.833084,90.6178914 254.609845,91.996345 C254.583454,92.1591913 254.577938,92.3173606 254.584428,92.4720221 C254.474539,92.5481304 254.292833,92.5196429 254.066132,92.4560776 C254.10853,91.3527194 254.148657,89.8966693 254.283855,89.6368806 C254.38228,89.4478853 254.666304,88.7604655 254.477135,88.5529747 C254.037578,88.0707072 253.207245,88.6017648 252.605343,88.7177343 L252.581224,88.7256003 C252.581224,88.7256003 252.486693,88.7634418 252.334622,88.7577018 C252.244959,88.9379808 252.152916,89.1555698 252.061089,89.3996267 C251.80378,89.7713457 251.099885,90.819536 250.801151,91.5831703 C250.546221,92.2352997 250.94922,92.4413024 251.222428,92.5063559 C251.015737,93.6132218 250.937539,94.5913626 251.117839,94.9368264 C251.57881,95.8195129 253.267057,95.6038372 253.267057,95.6038372 L254.328417,97.6277235 C254.746449,97.4480823 258.717598,95.8042062 258.987886,95.7000356 L258.299025,93.9658074 Z" id="Fill-35" fill="#FF955A"></path>
                    <path d="M253.510662,96.0682894 L253.267089,95.6037735 C253.267089,95.6037735 254.717604,95.0314729 255.320155,94.6224437 C255.320155,94.6224437 254.152908,95.6978459 253.510662,96.0682894" id="Fill-37" fill="#E3743A"></path>
                    <path d="M250.629752,87.0411401 C250.629752,86.114872 251.521086,85.1281212 252.157707,85.6617299 C252.79368,86.194807 254.110726,86.5065748 254.11343,86.5072126 C256.839349,86.6704841 257.834624,87.7581104 258.15207,88.271629 C260.219736,88.3344502 258.299057,93.9658287 258.299057,93.9658287 C258.299057,93.9658287 256.779321,93.7789594 256.430078,93.2052769 C256.080834,92.6314882 256.589936,92.3938091 256.321054,91.6659966 C256.052172,90.9382905 254.833117,90.6178064 254.609769,91.9963663 C254.583487,92.1592126 254.577971,92.3173819 254.58446,92.4720433 C254.474571,92.5480454 254.292865,92.5196642 254.066165,92.4560988 C254.108563,91.3527407 254.14869,89.8965843 254.283888,89.6367955 C254.382312,89.4479066 254.666336,88.7604868 254.477167,88.5528896 C254.037611,88.0707285 253.207278,88.6016798 252.605376,88.7177556 L252.581256,88.7256215 C252.581256,88.7256215 252.47883,88.7681401 252.313888,88.7574042 C251.622106,88.7852539 250.629752,87.9584794 250.629752,87.0411401" id="Fill-39" fill="#321E14"></path>
                    <path d="M230.721162,105.360096 C230.721162,105.360096 230.117962,105.385075 229.922736,105.387314 C229.727402,105.389434 227.801098,104.854018 227.551577,104.561065 C227.301947,104.268111 226.883806,103.556562 227.072542,103.071637 C227.261279,102.586819 227.513829,102.472656 227.784766,102.582248 C228.055703,102.691734 229.52428,103.081948 229.609617,103.054098 C229.694846,103.026355 228.836067,102.516132 228.913941,102.080528 C228.991816,101.644925 229.719182,102.258256 230.105524,102.544619 C230.491758,102.830982 230.701153,103.251704 230.898218,103.375114 C231.095175,103.498418 231.200737,103.48917 231.200737,103.48917 L230.721162,105.360096 Z" id="Fill-41" fill="#FF9860"></path>
                    <path d="M270.980634,117.140804 C268.347839,121.174758 258.683225,120.687388 258.683225,120.687388 C256.882169,117.85703 255.486492,113.160742 254.654212,109.8377 C254.092977,107.597075 253.788295,105.980092 253.788295,105.980092 C253.788295,105.980092 251.393016,106.779548 244.580542,106.95887 C237.768069,107.13883 230.721108,105.360064 230.721108,105.360064 L231.200791,103.489138 C231.200791,103.489138 236.498396,103.794103 244.219185,102.495159 C251.939973,101.196747 254.328438,97.6277341 254.328438,97.6277341 L258.987908,95.7000462 C267.163936,102.07093 270.980634,117.140804 270.980634,117.140804" id="Fill-43" fill="#88C2CA"></path>
                    <path d="M258.945445,103.549238 C258.945445,103.549238 256.427947,107.971706 254.654147,109.837742 C254.09302,107.597011 253.78823,105.980028 253.78823,105.980028 C253.78823,105.980028 256.721165,105.319288 258.945445,103.549238" id="Fill-45" fill="#009999"></path>
                    <path d="M140.177783,115.668097 L140.177783,116.34021 L140.21207,116.400268 C140.219208,116.399311 140.226347,116.39878 140.233593,116.39878 C140.456724,116.39878 140.712519,116.861807 141.008657,117.397755 C141.603637,118.474645 142.418612,119.949509 144.004432,119.980761 C144.116052,119.982993 144.223021,119.988414 144.326096,119.996599 L142.667268,115.668097 L140.177783,115.668097 Z" id="Fill-47" fill="#FF955A"></path>
                    <path d="M140.177783,116.340178 C140.177783,116.340178 139.155361,117.368278 139.036495,118.022534 C138.917628,118.676895 139.274335,121.504277 139.274335,121.504277 L140.29665,121.504277 L140.677043,118.922228 L143.030897,121.504277 L146.835157,121.504277 C146.835157,121.504277 146.473475,119.96404 144.00573,119.91525 C141.537985,119.866566 140.93857,116.153203 140.177783,116.340178" id="Fill-49" fill="#000000"></path>
                    <path d="M152.751753,115.668097 L152.751753,116.34021 L152.78604,116.400268 C152.793178,116.399311 152.800317,116.39878 152.807455,116.39878 C153.030694,116.39878 153.286489,116.861807 153.582627,117.397755 C154.177607,118.474645 154.992474,119.949509 156.578294,119.980761 C156.690022,119.982993 156.796991,119.988414 156.900066,119.996599 L155.241238,115.668097 L152.751753,115.668097 Z" id="Fill-51" fill="#FF955A"></path>
                    <path d="M152.751743,116.340178 C152.751743,116.340178 151.72932,117.368278 151.610454,118.022534 C151.491588,118.676895 151.848294,121.504277 151.848294,121.504277 L152.870609,121.504277 L153.251002,118.922228 L155.604857,121.504277 L159.409117,121.504277 C159.409117,121.504277 159.047434,119.96404 156.579689,119.91525 C154.111944,119.866566 153.51253,116.153203 152.751743,116.340178" id="Fill-53" fill="#000000"></path>
                    <path d="M139.881483,89.8652906 C136.28943,89.8074653 126.087377,89.8472202 126.087377,89.8472202 C126.087377,89.8472202 123.785871,95.1323908 127.321574,96.4893725 L135.769945,96.4893725 C136.601035,96.4330353 137.30201,96.8641741 137.30201,96.8641741 C137.30201,96.8641741 136.371522,99.240646 137.890933,104.680691 C139.410345,110.120629 139.822645,115.792188 139.822645,115.792188 L142.936745,115.792188 C142.936745,115.792188 142.223332,102.944443 142.936745,97.7359121 C143.650159,92.5273813 143.473536,89.9231159 139.881483,89.8652906" id="Fill-55" fill="#1E323C"></path>
                    <path d="M149.779925,92.3542668 C148.805633,89.5387901 146.947577,89.6235085 136.545755,89.9045565 C137.997459,89.9096588 139.113439,89.9183751 139.880391,89.9308118 C141.056182,89.9497326 141.881864,90.2492762 142.404594,90.8466628 C142.891741,91.4032316 143.142776,92.2226716 143.194693,93.4254171 C143.233738,94.3284062 143.164408,95.4263433 142.964423,97.0153703 C143.761011,96.9574387 144.692472,96.8328592 145.586618,96.5784915 C145.586618,96.5784915 145.540002,102.712972 148.44871,107.227067 C151.357525,111.741056 152.418452,115.792124 152.418452,115.792124 L155.700739,115.792124 C155.700739,115.792124 150.821275,95.3636283 149.779925,92.3542668" id="Fill-57" fill="#142832"></path>
                    <path d="M129.976368,89.6359026 C129.982317,89.5851992 130.000704,89.5305628 130.034233,89.4733752 L130.231081,89.1379033 C130.379475,88.8850238 130.755758,88.6780645 131.067255,88.6780645 L134.673585,88.6780645 L138.408623,79.134229 C138.576377,78.705535 139.095971,78.3548627 139.563216,78.3548627 L155.139234,78.3548627 C155.606587,78.3548627 155.851566,78.705535 155.683812,79.134229 L151.762633,89.1538478 C151.594879,89.5824355 151.075285,89.9332141 150.608041,89.9332141 L148.00261,89.9332141 L142.735073,89.9332141 L135.032022,89.9332141 L130.330912,89.9332141 L129.973664,89.9332141 L129.973664,89.6359026 L129.976368,89.6359026 Z" id="Fill-59" fill="#B2B2B2"></path>
                    <path d="M143.872674,84.1872586 C143.872674,84.8594779 144.45435,85.4063737 145.169386,85.4063737 C145.884422,85.4063737 146.466099,84.8594779 146.466099,84.1872586 C146.466099,83.5150392 145.884422,82.9681435 145.169386,82.9681435 C144.45435,82.9681435 143.872674,83.5150392 143.872674,84.1872586 M143.650949,84.1872586 C143.650949,83.4001326 144.332131,82.7596959 145.169386,82.7596959 C146.006641,82.7596959 146.687932,83.4001326 146.687932,84.1872586 C146.687932,84.9743845 146.006641,85.6148212 145.169386,85.6148212 C144.332131,85.6148212 143.650949,84.9743845 143.650949,84.1872586" id="Fill-61" fill="#C6C6C6"></path>
                    <path d="M136.993931,64.922572 C137.435543,64.2297311 137.696421,63.432507 137.696421,62.6008428 C137.696313,61.9589179 137.614761,61.3385713 137.436192,60.773924 C137.590534,61.1525523 137.735358,61.6136668 137.854657,62.1755503 C138.074111,63.208859 137.784354,64.1301312 136.993931,64.922572 M126.787984,60.7037683 C126.994243,61.2211136 127.44548,61.4877053 127.986489,61.5839037 C127.606744,62.2408164 127.380477,62.928555 127.380477,63.5879125 C127.380585,65.3005625 128.775505,66.3987121 130.470133,66.9156322 C130.464076,66.8063594 130.457479,66.703358 130.450881,66.6079037 C130.453585,66.6135374 130.456505,66.6191712 130.459317,66.6248049 C130.423733,66.43953 130.41627,66.3240919 130.41627,66.3240919 C130.41627,66.3240919 130.034471,66.4394237 129.771862,66.0204027 C129.509253,65.6013817 129.462637,64.7679105 129.933234,64.5002558 C130.403832,64.2327074 130.76692,64.3546295 130.753184,64.6166505 C130.739448,64.8785652 130.820026,65.0878631 131.046294,65.5004 C131.27267,65.9129369 131.575946,65.8813668 131.465624,65.3844305 C131.355303,64.8876004 131.419657,64.2732064 132.095215,64.1151434 C132.770882,63.9569741 133.431298,65.1916085 135.747621,63.6014122 C135.747621,63.6014122 135.912779,64.8814352 135.787207,66.2310825 C136.170196,65.9381292 136.511761,65.5930906 136.796326,65.2095726 C137.176611,64.8799471 137.470694,64.5217277 137.672302,64.140442 C137.993424,63.5330635 138.080276,62.8667968 137.930152,62.1601373 C137.64775,60.8306864 137.222579,60.0539775 136.859815,59.6065754 C136.152566,58.6311982 134.956008,58.0215875 133.119044,58.1030107 C132.583551,58.1267148 132.017017,58.2757426 131.456755,58.5189491 C131.442911,58.4770682 131.427769,58.4352937 131.411329,58.3938381 C130.949925,57.2362687 129.981149,56.4471231 128.443351,57.1190236 C127.287569,57.6240385 126.326688,59.5463052 126.787984,60.7037683" id="Fill-63" fill="#1C1A1C"></path>
                    <path d="M129.973664,89.6359133 L129.976368,89.6359133 C129.982317,89.5852098 130.000704,89.5305734 130.034233,89.4733858 L130.231081,89.1379139 C130.379475,88.8850345 130.755758,88.6780751 131.067255,88.6780751 L134.673585,88.6780751 L138.408623,79.1341333 C138.576377,78.7055456 139.095971,78.3548733 139.563216,78.3548733 L140.429349,78.3548733 C139.874496,76.4191069 139.227275,73.9693967 138.301006,72.5533141 C138.282511,72.5250392 138.247251,72.4924062 138.197606,72.456159 L138.206691,72.4528638 C137.445364,71.7423777 136.199702,71.2711651 135.266726,70.9967074 C134.999899,70.8803127 134.62394,70.782201 134.121111,70.7067305 C134.150206,70.7110886 134.178868,70.7155531 134.207097,70.7200175 C134.906991,72.0191739 135.052681,74.3882051 133.130163,74.3884177 C130.188575,74.3887366 129.492683,71.2910426 129.25441,70.6172288 C127.407927,70.8640494 126.212776,71.4176418 125.554415,71.8194427 C125.284559,71.9649627 125.064456,72.1201557 124.91801,72.2842775 C124.871069,72.3370006 124.831375,72.3906804 124.800441,72.4452105 C123.331324,75.0354448 122.238923,80.9192775 122.553881,86.8927183 C122.590006,87.5784373 124.216277,88.1128963 126.087312,88.502048 L126.087312,89.8471245 C126.087312,89.8471245 127.661451,89.8819898 129.973664,89.865939 L129.973664,89.6359133 Z" id="Fill-65" fill="#88C2CA"></path>
                    <path d="M134.673628,88.6780645 L132.365525,88.6780645 L132.995116,87.8440617 C132.995116,87.8440617 134.033979,87.8191884 134.963709,87.9367523 L134.673628,88.6780645 Z" id="Fill-67" fill="#FF955A"></path>
                    <path d="M132.417668,80.7698033 C132.417668,80.7698033 128.983527,81.8666774 127.974732,78.5971019 C127.974732,78.5971019 129.455747,81.0862481 132.417668,80.7698033" id="Fill-69" fill="#009999"></path>
                    <path d="M125.795716,85.7351383 C125.811183,85.6693407 126.820086,79.3097246 126.86151,75.9838119 L126.94609,75.9762649 C127.024289,76.8309954 127.01131,77.8041403 126.944793,78.7974815 C126.865296,80.7035912 126.74232,84.598403 126.994329,85.9480502 C126.994329,85.9480502 128.829779,86.8323312 130.568428,87.3013116 C130.522352,87.2904693 132.966951,87.8318376 132.995073,87.8440617 L132.977118,87.8678722 C132.846138,87.8459751 126.400106,86.5712669 125.802855,85.7692594 L125.79139,85.7537401 L125.795716,85.7351383 Z" id="Fill-71" fill="#009999"></path>
                    <path d="M138.408656,79.1341758 L136.235643,84.6866823 C136.127484,83.0163383 136.078705,80.838641 136.118832,80.7729497 C136.183294,80.6675035 136.826513,80.8822225 137.714278,79.9124791 C138.602152,78.942842 138.386808,77.28536 138.494209,77.2643133 C138.570786,77.2492192 138.694843,78.1517831 138.759522,78.6692347 C138.602692,78.7992354 138.476688,78.9602747 138.408656,79.1341758" id="Fill-73" fill="#009999"></path>
                    <path d="M134.207432,70.7197412 C134.007555,70.6358732 133.795024,70.569119 133.574705,70.5155455 C133.439615,70.0916349 133.369312,69.7050343 133.345625,69.3393742 C133.445131,69.3510668 133.547882,69.3595705 133.653661,69.3642476 C136.604983,69.4992442 135.747826,63.6013803 135.747826,63.6013803 C133.431719,65.191364 132.771303,63.9569422 132.095853,64.11458 C131.419754,64.2729619 131.354967,64.887037 131.466263,65.3838671 C131.576152,65.8815475 131.272767,65.9125861 131.046824,65.5003681 C130.820124,65.0872997 130.739545,64.878427 130.753714,64.6160871 C130.767234,64.354385 130.403821,64.2325692 129.933007,64.4995861 C129.462193,64.7674534 129.508809,65.6012435 129.771851,66.019733 C130.034893,66.4389666 130.416476,66.3240601 130.416476,66.3240601 C130.416476,66.3240601 130.424371,66.4389666 130.45909,66.6244541 C130.456711,66.619033 130.453574,66.6128678 130.450438,66.6073404 C130.517604,67.5615645 130.331139,69.2531677 130.064961,70.4728143 C129.571974,70.5442456 129.254421,70.6172713 129.254421,70.6172713 C129.254421,70.6172713 129.255286,70.6203539 129.256043,70.625775 C129.260802,70.657664 129.27973,70.7772476 129.322344,70.9557195 C129.54753,71.8912354 130.423614,74.4392699 133.29187,74.388035 C136.771655,74.3258515 134.255671,70.7864954 134.208298,70.7204852 L134.207432,70.7197412 Z" id="Fill-75" fill="#FF955A"></path>
                    <path d="M131.437839,68.2715404 C131.437839,68.2715404 131.438055,68.2715404 131.438055,68.2715404 C131.94348,68.7813386 132.619687,69.2088633 133.345647,69.3393955 C133.353651,69.4674828 133.368036,69.598015 133.388045,69.7319486 C131.763937,69.199084 131.437839,68.2715404 131.437839,68.2715404" id="Fill-77" fill="#F48146"></path>
                    <path d="M188.122265,153.909492 C188.122265,153.909492 191.153516,154.809398 191.808957,155.349385 C192.464397,155.889371 192.18232,156.835304 192.18232,156.835304 L184.156416,156.835304 C184.156416,156.835304 183.571278,155.007322 184.484136,153.863572 L188.122265,153.909492 Z" id="Fill-79" fill="#422E27"></path>
                    <path d="M176.138267,154.044977 C176.138267,154.044977 176.70491,156.289323 176.449331,156.694525 C176.193861,157.099834 171.90862,157.033611 171.539583,156.805605 C171.170546,156.577705 172.504681,154.22228 172.58991,154.044977 C172.675031,153.867675 174.352137,153.39136 176.138267,154.044977" id="Fill-81" fill="#422E27"></path>
                    <path d="M188.288353,121.704348 C188.556586,126.945831 188.851318,133.789416 188.738509,137.223007 C188.545121,143.11056 188.636948,153.479256 188.126656,154.115122 C187.612038,154.755984 184.506049,154.671372 184.159185,154.022857 C183.812429,153.374235 183.1956,143.052097 182.405719,137.695707 C182.091518,135.564993 180.5508,129.183692 180.06095,125.78029 C178.656295,135.755476 176.423146,153.613403 176.315095,154.115122 C176.16973,154.790318 173.675487,154.904799 172.53463,154.353971 C171.720197,153.96078 172.344271,133.344671 172.768253,121.576686 C174.020188,122.012927 180.137959,123.867483 188.288353,121.704348" id="Fill-83" fill="#000000"></path>
                    <path d="M172.725963,122.760872 C172.74024,122.357371 172.7543,121.96216 172.768253,121.576623 C174.020188,122.01297 180.137959,123.867526 188.288353,121.704391 C188.30501,122.029446 188.321774,122.360666 188.33843,122.696882 C186.034113,123.316591 179.799098,124.600122 172.725963,122.760872" id="Fill-85" fill="#0F232D"></path>
                    <path d="M176.449104,90.0807962 C176.393835,88.3102146 178.293315,87.9180867 178.293315,87.9180867 C178.293315,87.9180867 178.680739,84.9480548 182.121154,85.6791625 C182.121154,85.6791625 184.98822,84.9175477 185.065661,86.6387014 C185.065661,86.6387014 187.173347,87.186979 185.871551,89.0907502 C185.871551,89.0907502 186.270548,90.1899628 184.715012,90.7446181 C184.715012,90.7446181 183.88403,90.8903507 183.493469,91.0284299 C183.491522,91.0301307 183.394288,91.1149553 183.365842,91.5144177 C183.3507,91.7262668 183.335233,91.9461943 183.333394,92.1395477 L183.33307,92.139654 C183.33307,92.139654 183.119998,92.4295247 182.926502,92.139654 C182.926286,92.1393351 182.926069,92.1392288 182.925961,92.13891 C182.916443,92.0248538 182.900111,91.912392 182.873288,91.8032255 L182.873288,91.8032255 C182.703695,91.4845484 182.066966,91.0604252 181.663968,91.5962661 C181.202996,92.2092783 181.679542,93.3096601 182.225743,93.2602322 C182.772052,93.210698 181.966162,95.5562376 181.044111,95.7846689 C180.122059,96.0131002 178.803391,95.8379235 178.803391,95.8379235 C178.803391,95.8379235 178.040981,95.5714381 178.076349,94.1252735 C178.111717,92.6792153 176.504373,91.8513778 176.449104,90.0807962" id="Fill-87" fill="#000000"></path>
                    <path d="M179.662137,95.8987357 C179.891325,95.9044758 180.146038,95.9018183 180.399454,95.8819409 C180.621179,95.8645083 180.841822,95.8338949 181.043538,95.7839355 C181.763982,95.6054636 182.413366,94.1347445 182.40255,93.5235394 C182.401684,93.474643 182.396601,93.431274 182.386975,93.3943891 C182.382216,93.3759998 182.376267,93.3593112 182.369129,93.3443234 C182.36199,93.3293356 182.35377,93.3161548 182.344252,93.3048874 C182.315807,93.2711914 182.276437,93.2548217 182.225278,93.2593925 C182.071585,93.2733173 181.923407,93.1963586 181.800215,93.0647635 C181.772743,93.035532 181.746568,93.0035367 181.721908,92.9693092 C181.622943,92.8323993 181.547016,92.658817 181.507538,92.4741799 C181.497695,92.4279409 181.490124,92.3810641 181.485149,92.3339747 C181.482553,92.3103769 181.480715,92.2866728 181.479417,92.2629687 C181.478119,92.2393708 181.477578,92.2156667 181.477686,92.1919626 C181.478335,91.978838 181.53382,91.7678393 181.663502,91.5955326 C181.663719,91.5951074 181.664043,91.5947886 181.66426,91.5944697 C181.677563,91.5768244 181.691191,91.5603485 181.704927,91.5447229 C181.709686,91.5394081 181.714553,91.5346247 181.719312,91.5295225 C181.72883,91.5194243 181.738348,91.5094324 181.747974,91.5001846 C181.753707,91.4947635 181.759547,91.4897676 181.76528,91.4846653 C181.774257,91.4765868 181.783342,91.4688271 181.792427,91.461599 C181.798592,91.4567093 181.804757,91.4520323 181.810922,91.4475678 C181.8199,91.4408712 181.829093,91.4345997 181.838178,91.4285408 C181.844452,91.4245015 181.850725,91.4204622 181.856998,91.4167418 C181.866516,91.4111081 181.876034,91.4058996 181.885552,91.4009037 C181.891609,91.3978211 181.897666,91.3945259 181.903723,91.3915496 C181.914322,91.3866599 181.924922,91.3823018 181.935521,91.3780499 C181.940713,91.3760303 181.945904,91.3735854 181.951096,91.3717784 C181.966887,91.3660384 181.982786,91.3610425 181.998686,91.3568969 C182.000092,91.356578 182.001498,91.3563654 182.002904,91.3560465 C182.017505,91.3524324 182.032215,91.3493498 182.047033,91.3470113 C182.052657,91.3461609 182.058281,91.3456295 182.063905,91.3448854 C182.074397,91.3436098 182.084996,91.3423343 182.095596,91.3415902 C182.102085,91.341165 182.108575,91.3409524 182.115064,91.3407398 C182.124799,91.3404209 182.134641,91.3402083 182.144483,91.3403146 C182.151189,91.3404209 182.157895,91.3406335 182.164601,91.3409524 C182.174227,91.3414839 182.183853,91.3421217 182.193371,91.3430783 C182.200077,91.3437161 182.206783,91.3443539 182.21338,91.3452043 C182.223223,91.3464798 182.232957,91.3480743 182.242691,91.349775 C182.249073,91.350838 182.255346,91.3517947 182.261619,91.3531765 C182.272327,91.3553024 182.282818,91.3578536 182.293418,91.360511 C182.298717,91.3617865 182.304017,91.3628495 182.309317,91.3643376 C182.324892,91.3685895 182.340467,91.3733729 182.355825,91.3785814 C182.358313,91.3794318 182.3608,91.3804947 182.363288,91.3813451 C182.376267,91.3860221 182.389246,91.3908055 182.402009,91.3961203 C182.407633,91.3983525 182.413257,91.4009037 182.418773,91.4033485 C182.428291,91.407494 182.437809,91.4116396 182.447219,91.4161041 C182.453492,91.4190804 182.459657,91.4222693 182.465822,91.4253519 C182.474367,91.42971 182.482911,91.4340682 182.491456,91.4386389 C182.497729,91.4420404 182.504002,91.4455482 182.510167,91.4491623 C182.518387,91.4538393 182.526499,91.4586227 182.534503,91.4635123 C182.540668,91.4672327 182.546725,91.4709531 182.552674,91.4746735 C182.560786,91.479882 182.568681,91.4851968 182.576577,91.4905116 C182.582309,91.4943383 182.587933,91.498165 182.593558,91.502098 C182.601886,91.5079443 182.609998,91.5140032 182.61811,91.5200621 C182.622977,91.5236762 182.627844,91.5272903 182.632603,91.5309043 C182.645041,91.5405773 182.657155,91.5503566 182.668944,91.5603485 C182.672297,91.5632185 182.675434,91.5661948 182.678787,91.5690648 C182.687439,91.5765056 182.695876,91.5840526 182.704096,91.591706 C182.708855,91.5960641 182.713397,91.6006349 182.718048,91.6050993 C182.724538,91.6112645 182.730919,91.6174297 182.737084,91.6237012 C182.741951,91.6285909 182.746602,91.6334805 182.751253,91.6384764 C182.756877,91.644429 182.762501,91.6504879 182.767909,91.6565469 C182.772452,91.6615428 182.776886,91.666645 182.781213,91.671641 C182.786404,91.6776999 182.79138,91.6837588 182.796355,91.6897114 C182.800465,91.6948136 182.804575,91.6999158 182.808577,91.7050181 C182.813336,91.711077 182.81777,91.7172422 182.822313,91.7233011 C182.825882,91.728297 182.829668,91.733293 182.833021,91.7381826 C182.837563,91.7446667 182.841781,91.7511508 182.846,91.7576349 C182.84892,91.7620993 182.851948,91.7666701 182.85476,91.7711345 C182.861142,91.7816579 182.867199,91.7921812 182.872715,91.802492 L182.872715,91.802492 C182.899538,91.9115523 182.91587,92.024014 182.925388,92.1380702 C182.925604,92.1383891 182.925712,92.1386017 182.925929,92.1389206 C183.119424,92.4287913 183.332605,92.1389206 183.332605,92.1389206 L183.332821,92.1388143 C183.33466,91.9454609 183.350127,91.7255333 183.365269,91.513578 C183.393714,91.1142219 183.490949,91.0293972 183.492896,91.0275902 C183.503387,91.0239761 183.514311,91.0202557 183.525343,91.0165353 C183.528588,91.0154724 183.531941,91.0143031 183.535294,91.0132401 C183.546542,91.0095198 183.558007,91.0057994 183.569797,91.002079 C183.571527,91.0015475 183.573258,91.001016 183.57488,91.0004846 C183.614033,90.9882605 183.655891,90.9760364 183.699695,90.9640248 C183.70175,90.9633871 183.703913,90.9628556 183.706076,90.9622178 C183.720678,90.9581785 183.735495,90.9542456 183.750529,90.9502063 C183.750746,90.9502063 183.750854,90.9501 183.75107,90.9501 C183.798444,90.937557 183.847548,90.9251203 183.897409,90.9130025 C183.898058,90.9128962 183.898815,90.9126836 183.899464,90.9125773 C183.916012,90.9085381 183.93256,90.9046051 183.949217,90.9006721 C183.949325,90.9006721 183.949325,90.9006721 183.949433,90.9005658 C184.06765,90.8727161 184.188031,90.8466735 184.297163,90.8242449 C184.297379,90.8241386 184.297595,90.8241386 184.29792,90.8240323 C184.313278,90.8208434 184.328529,90.8177608 184.343455,90.8147845 C184.343779,90.8146782 184.344103,90.8145719 184.344428,90.8145719 C184.389314,90.8054304 184.43182,90.797033 184.471082,90.7893796 C184.471298,90.7892733 184.471514,90.7892733 184.471731,90.7892733 C184.484169,90.7868285 184.496066,90.78449 184.507747,90.7822578 C184.509586,90.7819389 184.511317,90.7815137 184.513155,90.7811948 C184.546793,90.7747107 184.577077,90.7689707 184.603468,90.764081 C184.605739,90.7636559 184.608227,90.7632307 184.61039,90.7628055 C184.617636,90.7614236 184.624342,90.7602544 184.630832,90.7589788 C184.634725,90.758341 184.638511,90.757597 184.642188,90.7569592 C184.647056,90.7560025 184.651923,90.7551521 184.656249,90.7543018 C184.661873,90.7533451 184.666849,90.7523884 184.671608,90.7515381 C184.676475,90.7506877 184.680801,90.7498373 184.684911,90.7490932 C184.688913,90.7483492 184.693023,90.7476051 184.696268,90.7470736 C184.698323,90.7467547 184.700053,90.7464358 184.701676,90.7461169 C184.704271,90.7455854 184.706651,90.7452666 184.708381,90.7449477 C184.709679,90.7447351 184.711194,90.7444162 184.712059,90.7442036 C184.713032,90.7440973 184.714438,90.7438847 184.714438,90.7438847 C184.714438,90.7438847 184.996191,91.7830397 184.766354,93.460293 L184.766354,93.4606118 C184.741478,95.2344886 183.845276,95.3354703 183.845276,95.3354703 L183.844844,95.335364 C183.484135,95.5341386 183.12029,95.5148989 182.95113,95.5922828 C182.614649,95.7462002 182.62633,97.3759389 182.62633,97.3762578 C180.309898,98.1871941 178.838618,97.5111481 178.827802,97.5061521 L178.827261,97.5053018 L178.802817,95.83719 C178.802817,95.83719 179.174991,95.8866179 179.662137,95.8987357" id="Fill-89" fill="#FF9860"></path>
                    <path d="M201.284585,100.409132 C201.300592,100.392018 201.316059,100.376074 201.332499,100.358216 C201.954303,99.6875911 202.140876,99.472128 202.627914,99.3907049 C203.114952,99.3091754 204.826885,98.2712959 205.384442,98.015759 C205.942108,97.7602221 206.130628,98.1991206 205.933671,98.3925803 C205.736823,98.5861463 203.912945,99.6045735 203.912945,99.6045735 C203.912945,99.6045735 205.437007,101.078588 204.3896,101.570209 C203.792889,101.850301 203.70355,101.273536 202.789286,102.030686 C202.658739,101.702655 202.220264,100.787123 201.284585,100.409132" id="Fill-91" fill="#FF9860"></path>
                    <path d="M168.898146,109.421294 C169.16454,111.058048 171.555709,111.647143 172.580727,111.825084 C172.864535,111.875043 173.04343,111.892795 173.04343,111.892795 L173.037914,111.983678 L173.037914,111.98421 L172.532164,121.490203 C172.532164,121.490203 179.211278,124.171428 188.466512,121.657302 L187.769214,110.368927 L187.569553,106.907274 C187.569553,106.907274 189.918648,110.709714 191.880536,111.225784 C193.842964,111.741747 202.897564,102.15061 202.897564,102.15061 C202.897564,102.15061 202.401982,100.56222 200.922589,100.28383 L192.820109,105.576441 C192.820109,105.576441 188.479058,99.1815345 187.497303,98.2316686 C185.727938,96.5207194 177.23295,96.5326246 174.994826,97.8360328 C172.75735,99.1395474 168.558528,107.330866 168.898146,109.421294" id="Fill-93" fill="#FFCC02"></path>
                    <path d="M173.043397,111.892826 L173.037881,111.98371 C173.584839,109.359461 173.899905,104.240644 173.754972,105.116315 C173.628643,105.880056 172.793443,110.620988 172.580695,111.825116 C172.864503,111.875075 173.043397,111.892826 173.043397,111.892826" id="Fill-95" fill="#D1A703"></path>
                    <polygon id="Fill-97" fill="#D1A703" points="186.61129 105.584998 187.769127 110.36898 187.569467 106.907327"></polygon>
                    <path d="M78.0557085,154.321986 C77.32261,154.338356 76.8292989,154.15627 76.5454909,154.00299 C76.1183729,154.135117 72.1932998,155.116765 71.7011785,155.555983 C71.1730404,156.027514 71.4002814,156.853438 71.4002814,156.853438 L79.8077686,156.865875 C79.8077686,156.865875 80.2431067,155.006642 79.5656016,154.005541 C79.1849918,154.157545 78.660531,154.308486 78.0557085,154.321986" id="Fill-99" fill="#422E27"></path>
                    <path d="M108.046912,155.556015 C107.563227,155.124344 103.727817,154.168632 103.218283,154.010569 C102.980117,154.173628 102.61465,154.312132 102.059148,154.315002 C101.186092,154.319467 100.535086,154.132172 100.179785,153.996963 C99.4938435,154.997958 99.9733103,156.842841 99.9733103,156.842841 L108.347809,156.853364 C108.347809,156.853364 108.575158,156.02744 108.046912,155.556015" id="Fill-101" fill="#422E27"></path>
                    <path d="M89.7949111,121.238833 C89.9059899,121.242873 90.0183666,121.246487 90.1319331,121.249782 L89.4578891,121.249782 C89.5715637,121.246487 89.6838323,121.242873 89.7949111,121.238833 C85.6148001,121.087892 83.1605749,120.260374 81.8742455,119.740265 C79.9789835,128.782593 76.1214013,152.995033 76.434304,153.988055 C76.6452131,154.65698 79.1896426,154.49424 79.7419,153.947875 C80.3216298,153.374299 84.325226,143.333102 86.3114492,138.257655 C87.2327436,135.903611 88.6491878,130.835605 89.9033941,126.077665 C91.1226652,130.835605 92.5067699,135.903611 93.4280643,138.257655 C95.4142876,143.333102 99.4177756,153.374299 99.9976135,153.947875 C100.549763,154.49424 103.0943,154.65698 103.305101,153.988055 C103.6206,152.987167 99.7404125,128.507179 97.8765166,119.67351 C96.639183,120.199466 94.1567283,121.081302 89.7949111,121.238833" id="Fill-103" fill="#142832"></path>
                    <path d="M90.1319222,121.249718 L89.4578783,121.249718 C89.5715529,121.246529 89.6838215,121.242809 89.7949003,121.238876 C85.6147893,121.087829 83.1605641,120.26031 81.8742347,119.740201 C81.7943055,120.121593 81.7108071,120.530516 81.6243885,120.96293 C84.51406,121.917473 91.4753594,123.640646 98.1306783,120.911801 C98.0425291,120.471734 97.9576246,120.057496 97.8765057,119.673447 C96.6391721,120.199508 94.1567175,121.081344 89.7949003,121.238876 C89.9059791,121.242809 90.0183558,121.246529 90.1319222,121.249718" id="Fill-105" fill="#0A1E28"></path>
                    <path d="M75.5779696,80.5454219 C75.5779696,80.6384314 75.0606474,80.713902 74.422512,80.713902 C73.7842685,80.713902 73.2669463,80.6384314 73.2669463,80.5454219 C73.2669463,80.4524125 73.7842685,80.3769419 74.422512,80.3769419 C75.0606474,80.3769419 75.5779696,80.4524125 75.5779696,80.5454219" id="Fill-107" fill="#5183AB"></path>
                    <path d="M75.8248307,77.8486785 C75.6280903,78.8222486 75.2678142,79.235317 75.2678142,79.235317 L73.1169737,79.2376555 C73.066031,79.7587212 73.2425457,80.2036785 73.3482166,80.483451 C73.3513532,80.491317 73.3545979,80.4991829 73.3573019,80.5071552 C73.3723359,80.5460597 73.38737,80.5813502 73.4013224,80.6130265 C73.4028367,80.6171721 73.4049998,80.6208925 73.4066222,80.6251443 C73.602281,80.6772297 73.9839724,80.7131579 74.4224471,80.7131579 C74.8695745,80.7131579 75.2565657,80.676273 75.4490879,80.6224869 C75.4726665,80.5813502 75.4984082,80.5387253 75.5256642,80.4950374 C75.6436651,80.3100814 75.7932484,80.1103502 75.9787402,79.9286894 C76.5334854,79.3828566 76.4451198,78.5951992 76.4874098,77.8486785 C76.529808,77.1026894 76.0210302,76.8756399 75.8248307,77.8486785" id="Fill-109" fill="#F09A65"></path>
                    <path d="M104.834993,80.8050406 C104.834993,80.8980501 105.352315,80.9735206 105.990451,80.9735206 C106.628694,80.9735206 107.146016,80.8980501 107.146016,80.8050406 C107.146016,80.7120311 106.628694,80.6365606 105.990451,80.6365606 C105.352315,80.6365606 104.834993,80.7120311 104.834993,80.8050406" id="Fill-111" fill="#5183AB"></path>
                    <path d="M104.588132,78.1083079 C104.784872,79.0818779 105.145148,79.4949463 105.145148,79.4949463 L107.237908,79.4949463 C107.288851,80.016012 107.170417,80.4633079 107.064746,80.7429741 C107.061609,80.7509463 107.058365,80.7588123 107.055661,80.7666782 C107.040627,80.805689 107.025593,80.8409795 107.011748,80.8726559 C107.010126,80.8768014 107.007963,80.8805218 107.00634,80.8847737 C106.810682,80.936859 106.42899,80.9726809 105.990516,80.9726809 C105.543388,80.9726809 105.156397,80.935796 104.963875,80.8821162 C104.940296,80.8409795 104.914554,80.7983546 104.887299,80.7546667 C104.769298,80.5697107 104.619714,80.3699795 104.434331,80.1883187 C103.879477,79.6424859 103.967843,78.8548285 103.925553,78.1083079 C103.883155,77.3623187 104.391932,77.1352693 104.588132,78.1083079" id="Fill-113" fill="#F09A65"></path>
                    <path d="M107.145963,80.8050938 C107.145963,80.8981032 106.628532,80.9734675 105.990505,80.9734675 C105.352369,80.9734675 104.835047,80.8981032 104.835047,80.8050938 C104.835047,80.8050938 101.860579,90.8636171 101.768104,91.7726652 C101.704507,92.3972637 97.918309,95.126959 95.5549369,96.7741303 L95.6003635,96.727785 C95.6003635,96.727785 94.5021218,97.5910193 92.3150481,97.5910193 L91.7663599,97.5910193 L91.6798331,97.571567 C91.7210415,97.6824343 91.7662517,97.7951087 91.818276,97.9099089 C91.6902163,98.0486259 91.0963178,98.5978602 89.7327632,98.5983917 L89.7316816,98.5983917 C88.3684515,98.5978602 87.7744448,98.0488385 87.6461688,97.9099089 C87.6979767,97.7955339 87.7427544,97.6831784 87.7832057,97.57263 L87.6971115,97.5910193 C85.8857805,97.5910193 84.8220414,96.9992664 84.5098959,96.7959211 C82.1693452,95.1701154 78.1472539,92.2888412 78.0817098,91.6448968 C77.9892343,90.7358487 75.577948,80.5454113 75.577948,80.5454113 C75.577948,80.6384208 75.0606257,80.7138913 74.4224904,80.7138913 C73.7844632,80.7138913 73.267141,80.6384208 73.2670328,80.5454113 C73.2667083,80.5494506 73.00994,89.9548879 73.6938264,93.8901987 C74.130895,96.4054939 81.5267754,101.5579 81.5273162,101.558219 L81.5273162,101.558325 C81.5273162,101.558325 83.1144345,111.679883 81.1720154,119.384044 C81.1720154,119.384044 83.2550406,121.101052 89.8016602,121.350423 C96.3482798,121.101052 98.4313049,119.384044 98.4313049,119.384044 C96.4888859,111.679883 98.0760042,101.558325 98.0760042,101.558325 C98.0760042,101.558325 105.75937,96.4455677 106.196547,93.9301662 C106.880433,89.9947492 107.145963,80.8090267 107.145963,80.8050938" id="Fill-115" fill="#606060"></path>
                    <path d="M90.0204649,97.2311204 C90.0119204,97.2320771 90.0033758,97.2330338 89.9947231,97.2339905 C89.9862868,97.2349471 89.9776341,97.2356912 89.9688733,97.2365416 C89.9603287,97.2372856 89.9516761,97.2380297 89.9430234,97.2387738 C89.9343707,97.2395179 89.925718,97.2401557 89.9169572,97.2407934 C89.9083045,97.2414312 89.8995436,97.2419627 89.8907828,97.2424942 C89.8837525,97.2428131 89.8768303,97.2432383 89.8698,97.2435571 C89.863635,97.243876 89.85747,97.2441949 89.8513049,97.2444075 C89.839083,97.244939 89.8266448,97.2452579 89.8143147,97.2455768 C89.8072844,97.2457894 89.8002541,97.2458957 89.793332,97.246002 C89.781759,97.2462146 89.7700779,97.2463209 89.7583968,97.2463209 C89.7477972,97.2463209 89.7371977,97.2462146 89.7265981,97.246002 C89.7096173,97.2458957 89.6927445,97.2454705 89.6757636,97.244939 C89.6376918,97.2435571 89.5999445,97.2413249 89.5626298,97.238136 C89.5373207,97.2360101 89.5122279,97.233459 89.4872433,97.2304827 C89.4606363,97.2275064 89.4343538,97.2238923 89.4081794,97.2199593 C89.3995267,97.2184712 89.3907659,97.2171956 89.3822214,97.2157074 C88.8352637,97.1259932 88.3665046,96.845264 87.971077,96.4765213 C87.9217567,96.8804481 87.8074332,97.3855693 87.5585604,97.922048 C87.5585604,97.922048 88.1157931,98.6714387 89.7316816,98.6719701 L89.7328713,98.6719701 C91.3486516,98.6714387 91.9059926,97.922048 91.9059926,97.922048 C91.6653398,97.4034271 91.5442023,96.9140378 91.4848232,96.5172328 C91.0737127,96.8900148 90.5871074,97.1654292 90.0204649,97.2311204" id="Fill-117" fill="#FF8B50"></path>
                    <path d="M94.1038929,92.3805645 C94.0878854,91.6207568 93.6279954,91.4929884 93.235488,91.5945016 C93.235488,91.5945016 93.2353799,91.5946079 93.2353799,91.5946079 C92.9265873,91.9389024 92.9841276,93.0953025 92.797446,93.0647954 C92.6107644,93.034182 92.237293,89.8741982 92.237293,89.8741982 C89.4576187,91.1585794 87.1031156,89.8741982 87.1031156,89.8741982 C87.1964564,90.710008 86.7815603,92.9933641 86.5948787,92.9322436 C86.4081971,92.8711231 86.2827332,91.6223513 86.2827332,91.6223513 C86.282625,91.6223513 86.282625,91.622245 86.2825168,91.622245 C85.8740021,91.4769376 85.341105,91.5615496 85.3237996,92.3805645 C85.3072514,93.172899 85.8634025,93.4729741 86.2827332,93.5866051 L86.2827332,93.59479 C86.2827332,93.59479 87.226849,96.9107108 89.382124,97.264572 C89.3907767,97.2659538 89.3995376,97.2673357 89.4081902,97.2687175 C89.4343646,97.2726505 89.4606471,97.2762646 89.4872541,97.2793472 C89.5122388,97.2823235 89.5373315,97.2848746 89.5626406,97.2870005 C89.5999553,97.2900831 89.6377027,97.2923154 89.6757745,97.2936972 C89.6927553,97.294335 89.7096281,97.2947602 89.726609,97.2947602 C89.7372085,97.2949728 89.747808,97.2950791 89.7584076,97.2950791 C89.7700887,97.2950791 89.7816617,97.2949728 89.7933428,97.2947602 C89.8002649,97.2947602 89.8072952,97.2946539 89.8143255,97.2944413 C89.8266556,97.2941224 89.8390938,97.2936972 89.8513158,97.2931657 C89.8574808,97.2929531 89.8636458,97.2926343 89.8698109,97.2923154 C89.8768412,97.2921028 89.8837633,97.2916776 89.8907936,97.2912524 C89.8995545,97.2907209 89.9082071,97.2901894 89.916968,97.289658 C89.9256207,97.2890202 89.9343815,97.2882761 89.9430342,97.287532 C89.9516869,97.2868942 89.9603396,97.2861502 89.9688841,97.2852998 C89.9776449,97.2845557 89.9862976,97.2837053 89.994734,97.2827487 C90.0033866,97.2818983 90.0119312,97.2808353 90.0204757,97.2798787 C91.4879707,97.1098042 92.4213788,95.5362964 92.8846218,94.4922517 C92.8901379,94.4799213 92.8956539,94.4675909 92.9010619,94.4552605 C92.9048474,94.4466505 92.9087411,94.4381468 92.9123104,94.4295368 C93.1213808,93.9489701 93.2266191,93.5941522 93.2348391,93.5660899 C93.2351636,93.5648144 94.1193596,93.1128414 94.1038929,92.3805645" id="Fill-119" fill="#FF955A"></path>
                    <path d="M86.2827872,91.6223725 C86.2827872,91.6223725 86.4082511,92.8710381 86.5949328,92.9322649 C86.7816144,92.9933854 87.1965105,90.7100292 87.1031697,89.8741132 C87.1031697,89.8741132 89.4576728,91.1584944 92.237347,89.8741132 C92.237347,89.8741132 92.6108184,93.0342032 92.7975001,93.0647104 C92.9841817,93.0953238 92.9266414,91.9388173 93.235434,91.5945228 C93.5442266,91.2503346 94.4881261,86.9791267 92.4344119,87.7233089 C92.4344119,87.7233089 93.0153314,86.285967 91.6357693,86.2044375 C91.6357693,86.2044375 91.158682,84.6448546 89.1775422,86.2044375 C89.1775422,86.2044375 87.2898513,85.5418911 87.2379352,86.8771884 C87.2379352,86.8771884 85.7132244,87.0199446 85.6198836,88.1514714 C85.5265428,89.2828918 86.1055154,91.4440069 86.2827872,91.6223725" id="Fill-121" fill="#140A00"></path>
                    <path d="M90.0644638,56.7941282 C86.7210672,56.7941282 84.0107226,54.130443 84.0107226,50.8446041 C84.0107226,47.5587653 86.7210672,44.8950801 90.0644638,44.8950801 C93.4078603,44.8950801 96.1182049,47.5587653 96.1182049,50.8446041 C96.1182049,54.130443 93.4078603,56.7941282 90.0644638,56.7941282 M122.296788,56.5520909 L118.270911,54.6183441 C117.262982,54.1340571 116.522312,52.9003794 116.584828,51.8095642 C116.610894,51.3539772 117.099121,48.0119074 118.33148,47.4402446 L122.372282,45.5650672 C123.017989,45.265311 123.381185,44.4470401 123.165084,43.778116 L121.250895,37.8529339 C121.034794,37.1840097 120.257999,36.7211945 119.554645,36.8425852 L115.127175,37.6059007 C114.022876,37.7963841 112.688416,37.2339691 112.089326,36.3255588 C111.836884,35.9428912 110.227053,32.9625486 110.884657,31.7830821 L113.044474,27.9101674 C113.387661,27.2946041 113.191894,26.4229724 112.617032,26.0065026 L107.524712,22.3186502 C106.949849,21.9021803 106.044562,21.9766942 105.548115,22.4811776 L102.435745,25.6432873 C101.656679,26.4347714 100.255052,26.7300632 99.2361991,26.3196522 L97.6567601,25.8035825 C96.5906414,25.5330578 95.6477153,24.4718993 95.5058113,23.3793834 L94.9389525,19.0153787 C94.8485319,18.3192426 94.1688637,17.7270645 93.4546929,17.7222812 L87.1292575,17.6803698 C86.4151949,17.6755107 85.7274148,18.2587599 85.6273682,18.9536204 L84.99821,23.326554 C84.9274743,23.8178567 84.6942845,24.3056515 84.3620215,24.7191451 C83.9562107,25.2240537 83.4025472,25.618095 82.8160035,25.772225 C82.3682271,25.8898953 78.9908688,26.4736759 78.052918,25.4946847 L74.9716978,22.2784701 C74.4820641,21.7673963 73.5779669,21.6809772 72.9973719,22.0896874 L67.8549746,25.7097226 C67.2742714,26.1187517 67.0667152,26.9875134 67.4013577,27.6074349 L69.4959558,31.4867274 C70.0212818,32.4598722 69.8903018,33.8782934 69.1994933,34.7231383 C68.9064918,35.0797632 66.5154311,37.5223516 65.171994,37.2722358 L60.7692928,36.4525831 C60.0675603,36.322051 59.2844925,36.7745554 59.0590901,37.440397 L57.0638897,43.339749 C56.8385955,44.0056969 57.190327,44.828751 57.8319234,45.1371173 L61.8578003,47.0709704 C62.8657297,47.5550449 63.6062911,48.7887226 63.5437755,49.8796441 C63.5177093,50.3353374 63.0293735,53.6775134 61.7972315,54.2490699 L57.7565369,56.1242473 C57.1108305,56.423791 56.7477423,57.2421681 56.9638431,57.9111986 L58.8779246,63.8363807 C59.0940253,64.5053049 59.8708199,64.9680137 60.574283,64.8467294 L65.0015362,64.0833076 C66.1059429,63.8929305 67.4404029,64.4552392 68.039493,65.3635432 C68.291935,65.7463171 69.9017666,68.7266596 69.2441627,69.9061261 L67.084345,73.7790408 C66.741158,74.3946041 66.9368168,75.2663421 67.5117875,75.6827057 L72.3992553,78.8514058 C72.9741179,79.2677693 74.889281,79.8442155 75.3858368,79.3397321 L77.6930746,76.045921 C78.4721405,75.2544369 79.8738751,74.9591451 80.8927284,75.3696624 L82.4721675,75.8856258 C83.538178,76.1563631 84.481104,77.2174152 84.623008,78.3098248 L85.1898669,82.6738296 C85.2802874,83.370072 85.9599557,83.9621437 86.6740183,83.9669271 L92.9995618,84.0089422 C93.7137326,84.0135913 94.4014046,83.4305547 94.5014512,82.7355879 L95.1306094,78.3627605 C95.2874393,77.2715202 96.2460483,76.1973936 97.3125996,75.9170896 C97.7603759,75.7994193 101.137734,75.2154261 102.075793,76.1945236 L105.15723,79.4107382 C105.646755,79.921812 106.550852,80.0082311 107.131556,79.5995209 L112.273845,75.9795919 C112.85444,75.5705628 113.062212,74.7018012 112.727462,74.0817734 L110.632864,70.2023746 C110.111431,69.2364579 110.235922,67.8286664 110.914076,66.9847781 C110.919159,66.9785066 110.924135,66.9723414 110.929326,66.9660699 C111.222328,66.609445 113.61328,64.166963 114.956717,64.4170787 L119.359527,65.2366251 C120.061367,65.3671573 120.844651,64.9149718 121.069621,64.2488113 L123.064822,58.3494592 C123.290116,57.6834051 122.938384,56.8603509 122.296788,56.5520909" id="Fill-123" fill="#009999"></path>
                    <path d="M192.694526,68.5399817 L212.411394,68.5399817 L212.411394,48.2550927 L212.836132,48.1388043 C213.505201,47.9554427 214.176757,47.9730879 214.831549,48.1909959 L214.896769,48.2126804 L214.960474,48.2505219 C216.189047,49.0114989 217.608411,49.4137251 219.064874,49.4137251 C223.317235,49.4137251 226.776577,46.01383 226.776577,41.8347812 C226.776577,37.6557325 223.317235,34.2557311 219.064874,34.2557311 C217.608519,34.2557311 216.189155,34.6579573 214.960474,35.4189343 L214.898932,35.4570947 L214.822031,35.4814366 C214.165401,35.6964745 213.499793,35.712419 212.836132,35.5305456 L212.411394,35.4142572 L212.411394,15.1294745 L191.695358,15.1294745 L191.598664,14.6759072 C191.473633,14.0894691 191.509649,13.5034563 191.705849,12.9340257 L191.733429,12.8590866 L191.766526,12.8073202 C192.540725,11.5998977 192.949997,10.2049681 192.949997,8.77347251 C192.949997,4.59442376 189.490546,1.19452871 185.238293,1.19452871 C180.985932,1.19452871 177.52659,4.59442376 177.52659,8.77347251 C177.52659,10.2048618 177.935862,11.5996851 178.710169,12.8073202 L178.74478,12.8613188 L178.774415,12.9452931 C178.967153,13.5111096 179.002089,14.0931895 178.877923,14.6758009 L178.781337,15.1294745 L158.065301,15.1294745 L158.065301,34.5068036 C158.344566,34.529551 158.622858,34.4990439 158.896716,34.4152823 C160.296611,33.5642721 161.906659,33.1146377 163.557699,33.1146377 C168.450142,33.1146377 172.430484,37.0264569 172.430484,41.8347812 C172.430484,46.6429993 168.450142,50.5548185 163.557699,50.5548185 C161.906119,50.5548185 160.295854,50.1051841 158.895742,49.2536425 C158.624481,49.1700934 158.346297,49.1393737 158.065301,49.16244 L158.065301,68.5399817 L177.78206,68.5399817 C177.805098,68.2652051 177.774057,67.9917041 177.688828,67.7226675 C176.822802,66.3468713 176.365508,64.7646472 176.365508,63.1419241 C176.365508,58.3337061 180.34585,54.4219932 185.238293,54.4219932 C190.130736,54.4219932 194.11097,58.3337061 194.11097,63.1419241 C194.11097,64.7650724 193.65346,66.3476154 192.787543,67.7233053 C192.702314,67.9922355 192.67138,68.265524 192.694526,68.5399817 L192.694526,68.5399817 Z M213.572476,69.6810751 L191.771069,69.6810751 L191.652743,69.2635422 C191.466386,68.6057792 191.484124,67.9458903 191.705849,67.3024773 L191.731915,67.2298767 L191.766526,67.1758781 C192.540725,65.9683493 192.949997,64.5734197 192.949997,63.1419241 C192.949997,58.9628754 189.490546,55.5629803 185.238293,55.5629803 C180.985932,55.5629803 177.52659,58.9628754 177.52659,63.1419241 C177.52659,64.5733134 177.935862,65.968243 178.710169,67.1758781 L178.743265,67.2275382 L178.774739,67.3147014 C178.992463,67.9542877 179.009011,68.6098185 178.823735,69.2635422 L178.705518,69.6810751 L156.904219,69.6810751 L156.904219,48.2550927 L157.328958,48.1388043 C157.998026,47.9554427 158.669474,47.9730879 159.324374,48.1909959 L159.389594,48.2126804 L159.453299,48.2505219 C160.681872,49.0114989 162.101237,49.4137251 163.557699,49.4137251 C167.81006,49.4137251 171.269403,46.01383 171.269403,41.8347812 C171.269403,37.6557325 167.81006,34.2557311 163.557699,34.2557311 C162.101345,34.2557311 160.68198,34.6579573 159.453299,35.4189343 L159.391757,35.4570947 L159.314856,35.4815429 C158.658118,35.6965808 157.992727,35.7123127 157.328958,35.5305456 L156.904219,35.4142572 L156.904219,13.9883811 L177.789199,13.9883811 C177.788442,13.7750439 177.754913,13.5629823 177.688828,13.3541096 C176.822802,11.9783134 176.365508,10.3961956 176.365508,8.77347251 C176.365508,3.9652545 180.34585,0.0534352742 185.238293,0.0534352742 C190.130736,0.0534352742 194.11097,3.9652545 194.11097,8.77347251 C194.11097,10.3966208 193.653676,11.9790575 192.787434,13.3548537 C192.721566,13.5636201 192.688037,13.7753628 192.687388,13.9883811 L213.572476,13.9883811 L213.572476,34.5068036 C213.852282,34.5296573 214.130033,34.4990439 214.40389,34.4152823 C215.803786,33.5642721 217.413834,33.1146377 219.064874,33.1146377 C223.957317,33.1146377 227.937659,37.0264569 227.937659,41.8347812 C227.937659,46.6429993 223.957317,50.5548185 219.064874,50.5548185 C217.413293,50.5548185 215.803029,50.1051841 214.402917,49.2536425 C214.131655,49.1700934 213.853363,49.1393737 213.572476,49.16244 L213.572476,69.6810751 Z" id="Fill-125" fill="#C6BED0"></path>
                    <g id="Group-129" transform="translate(0.000000, 45.920108)">
                        <mask id="mask-2" fill="white">
                            <use xlink:href="#path-1"></use>
                        </mask>
                        <g id="Clip-128"></g>
                        <path d="M25.0270839,17.0109553 C24.7397066,17.0109553 24.450707,17.0264746 24.1610585,17.0577258 C19.874844,17.5208599 16.7711268,21.3244692 17.2422654,25.5367888 C17.7134039,29.7492146 21.5830999,32.7984374 25.8699633,32.3365789 C30.1560696,31.8735511 33.2597868,28.0698355 32.7886482,23.8574096 C32.5608664,21.8203426 31.5369296,19.9902349 29.9053581,18.7044719 C28.501893,17.59835 26.7960166,17.0109553 25.0270839,17.0109553 L25.0270839,17.0109553 Z M25.0089132,33.4100677 C20.550943,33.4100677 16.701689,30.1025443 16.2035108,25.6490379 C15.9452283,23.3393202 16.6197049,21.0663812 18.1026665,19.2490291 C19.5856281,17.4315708 21.6966663,16.2907962 24.0468431,16.0369601 C26.3970198,15.7830176 28.7098819,16.4458829 30.5590683,17.9033148 C32.4083628,19.3607468 33.5690121,21.4354428 33.8274028,23.7451605 C34.3614896,28.5204265 30.8429844,32.8324523 25.9841787,33.3573446 C25.6567828,33.3927414 25.3309012,33.4100677 25.0089132,33.4100677 L25.0089132,33.4100677 Z M22.5449537,42.9531591 C23.545312,43.0561605 24.5110595,43.8525342 24.7967062,44.8129235 L25.7065358,47.8722444 C25.7782449,48.1136439 26.0855232,48.3063595 26.3381816,48.2684116 L30.8691588,47.5924719 C31.1219253,47.5547366 31.3569538,47.2814482 31.3526274,47.0301632 L31.2975747,43.8308497 C31.2802694,42.8258158 31.9632905,41.7633819 32.8863154,41.3596676 C32.9138958,41.3476561 35.7246116,40.2281408 36.858762,41.0894617 L39.4352063,43.047019 C39.6374628,43.2008301 40.0009836,43.1790393 40.1831226,43.002587 L43.4444268,39.838564 C43.6263494,39.6618991 43.6530646,39.3049553 43.4992632,39.1041611 L41.5523014,36.5619729 C40.944775,35.7685755 40.8550034,34.524587 41.3435555,33.668262 L41.8075556,33.9048781 L41.3510184,33.6554001 C41.3699461,33.6227671 42.9520891,31.1172512 44.3756717,31.1172512 C44.387461,31.1172512 44.3991421,31.1174638 44.4109314,31.1177827 L47.6559037,31.2128118 C47.9067233,31.218977 48.1928026,30.9929905 48.2343355,30.745107 L48.9804131,26.3009546 C49.0220541,26.0529648 48.830289,25.7487441 48.5856344,25.6750806 L45.4815927,24.7406276 C44.5023254,24.4458673 43.6863774,23.4738917 43.583735,22.4799127 C43.5807065,22.4504685 43.3747727,19.4727833 44.5542415,18.6823622 L47.229002,16.8897773 C47.4403437,16.7481903 47.5316295,16.4016635 47.4170897,16.1770589 L45.3628347,12.1509709 C45.2481866,11.9261537 44.9108402,11.7911571 44.669214,11.8725802 L41.5892916,12.9129045 C40.6217054,13.2395538 39.3837229,12.9305498 38.7093544,12.1935958 C38.6892369,12.1715924 36.7357857,9.88749221 37.2191462,8.5612302 L38.3170634,5.54889235 C38.4033739,5.31216994 38.2701226,4.97924915 38.0429897,4.86359851 L33.9730923,2.79294177 C33.7460676,2.67761002 33.3923892,2.76275355 33.245618,2.96854367 L31.3838852,5.57854909 C30.7992884,6.39798917 29.6241459,6.84709208 28.6433644,6.62897156 L27.4862844,6.44114557 C26.485818,6.3383568 25.5199623,5.54198307 25.2343156,4.58127488 L24.324486,1.52195396 C24.2527769,1.2806608 23.9466883,1.08837035 23.6929484,1.12599932 L19.1619712,1.80183277 C18.9089884,1.83946175 18.674068,2.11285647 18.6783944,2.3641415 L18.7334471,5.56345498 C18.74091,6.00469194 18.616095,6.46357414 18.3723057,6.89067366 C18.0746534,7.41237712 17.6385582,7.81874882 17.1443819,8.0347434 C17.117126,8.04664861 14.3066265,9.16637644 13.172368,8.30473663 L10.5959236,6.34728571 C10.393559,6.19358091 10.0300382,6.21505281 9.84811552,6.39171767 L6.586595,9.55584699 C6.40467235,9.73251185 6.37795719,10.0893494 6.53175862,10.2901435 L8.47861219,12.8323318 C9.09187107,13.6329573 9.17699183,14.8850244 8.67665046,15.7448571 C8.66096748,15.7715376 7.05070326,18.3169147 5.62009036,18.2766283 L2.37511809,18.1814929 C2.11867421,18.1744773 1.83821914,18.4014204 1.79657811,18.6495166 L1.05060871,23.09335 C1.00885952,23.3413399 1.20084091,23.6455606 1.44538735,23.7192241 L4.54942905,24.653677 C5.5286964,24.9483311 6.3445362,25.9202004 6.44707049,26.914392 C6.45020709,26.9437299 6.65646541,29.921415 5.47667215,30.7118362 L2.80212797,32.5045274 C2.5907862,32.6461144 2.49939224,32.9925349 2.61414845,33.2173521 L4.66829528,37.2434401 C4.78294332,37.4680447 5.11996531,37.6033602 5.36191594,37.5216181 L8.44162197,36.4814001 C9.40910004,36.1545383 10.6471908,36.4637549 11.3216674,37.2004963 C11.3417848,37.222606 13.2954524,39.5063873 12.8118756,40.8331808 L11.7139584,43.8454123 C11.6289457,44.0787332 11.7571136,44.4058077 11.978406,44.5256039 L15.8513467,46.2526039 C16.1915052,46.425761 17.1105283,46.5145186 17.3790859,46.4089661 L18.6222601,43.8507271 L18.6471365,43.8157556 C19.2316253,42.9963155 20.4065514,42.5468937 21.3877656,42.7654394 L22.5449537,42.9531591 Z M26.2739354,49.3000196 C25.57707,49.3000196 24.900971,48.8243426 24.7035817,48.1603081 L23.7937521,45.1010934 C23.6252411,44.5344265 23.0118741,44.0286676 22.4263038,43.9734997 L22.3910441,43.9690352 L21.1664732,43.7691977 C20.6065365,43.6389844 19.880252,43.9094028 19.5261409,44.3737062 L18.2573332,46.9844557 L18.2324567,47.0194272 C17.6874459,47.7832742 15.922515,47.4353656 15.3849671,47.1715376 L11.5075919,45.4426242 C10.8164589,45.0909953 10.4677557,44.219151 10.7302565,43.4990982 L11.8281738,40.4868666 C12.0176675,39.9669702 10.9549018,38.3354245 10.5447646,37.8873846 C10.1542042,37.4607102 9.34669257,37.2615105 8.78123976,37.4526317 L5.70153373,38.4928497 C4.96551493,38.7412647 4.08304947,38.3875098 3.7342382,37.7038104 L1.67998321,33.6777224 C1.33117194,32.9937041 1.57041862,32.0868883 2.21342109,31.6560684 L4.88807342,29.8633771 C5.35012666,29.5538416 5.46953368,27.6185003 5.40755884,27.0181374 C5.34796349,26.4406283 4.81485009,25.8075261 4.24344857,25.6356445 L1.13929871,24.7010853 C0.395059853,24.4769059 -0.107228368,23.6806385 0.0195334308,22.9260393 L0.765610982,18.4823121 C0.89248094,17.7276066 1.62893238,17.1335152 2.40626775,17.1549871 L5.65124002,17.2501225 C6.21106858,17.2712756 7.46278726,15.7591009 7.77017381,15.2338896 C8.06512213,14.7270677 8.00877153,13.9263358 7.64384465,13.4498084 L5.69688292,10.9077265 C5.22898911,10.2968402 5.29875136,9.36249357 5.85252304,8.82505823 L9.11393541,5.66082261 C9.66759893,5.12359986 10.6192859,5.0670501 11.2350324,5.53486121 L13.8113686,7.49231212 C14.255792,7.82990995 16.1601393,7.34105213 16.7196434,7.09646378 C17.00529,6.97156534 17.2753619,6.71358362 17.4608538,6.38842248 C17.6121676,6.12342519 17.692962,5.8366371 17.6885275,5.58078131 L17.6335829,2.38157414 C17.6203876,1.61666418 18.2358097,0.901075829 19.0052494,0.786488152 L23.5361185,0.110654705 C24.3054501,-0.00403926879 25.109068,0.499700068 25.3274401,1.23389032 L26.2373778,4.29331754 C26.4057807,4.85998443 27.0192558,5.3657434 27.604718,5.42069871 L27.6400858,5.42526947 L28.8646567,5.62510697 C29.4373561,5.75755247 30.1835419,5.47246513 30.5282431,4.98913473 L32.3899759,2.37912932 C32.8366706,1.75293636 33.7626158,1.52939472 34.4535325,1.8810237 L38.5234299,3.95168043 C39.2145629,4.30330941 39.563266,5.17515369 39.3007653,5.8952065 L38.202848,8.90743805 C38.0134624,9.42712187 39.0762282,11.0587739 39.4863653,11.5069201 C39.8768176,11.9335944 40.6843292,12.1324753 41.2496739,11.9417793 L44.329488,10.901455 C45.0657232,10.6529336 45.9480805,11.0069012 46.2967836,11.6906005 L48.3511467,15.7166886 C48.699958,16.4003879 48.4606032,17.3072038 47.8176007,17.7382363 L45.1428402,19.5309276 C44.6810033,19.8403568 44.5613799,21.7758043 44.6233548,22.3762735 C44.6830583,22.9535701 45.2161717,23.5866723 45.7876814,23.7587664 L48.8917231,24.6932194 C49.6359619,24.9172925 50.138142,25.7136662 50.0113802,26.4682654 L49.2653026,30.9119926 C49.1390816,31.6665917 48.4063076,32.2640846 47.624754,32.2393175 L44.3797818,32.1442884 C44.3767533,32.1441821 44.3736167,32.1441821 44.3705883,32.1441821 C43.8058926,32.1441821 42.5666121,33.6378612 42.2607398,34.160415 L42.2548993,34.1706195 C41.9663323,34.6764848 42.0256032,35.4722207 42.3871771,35.94439 L44.3341389,38.4865782 C44.8020327,39.0974645 44.7322704,40.0318111 44.1786069,40.5692464 L40.9170864,43.7333758 C40.3632065,44.2708111 39.4115196,44.3273609 38.7959894,43.8595498 L36.219545,41.9019926 C35.7755543,41.5641821 33.8707744,42.0532525 33.3111621,42.2979472 C32.7758855,42.5320122 32.3322192,43.2260223 32.3423861,43.8135234 L32.3974388,47.0128368 C32.410526,47.7774279 31.7953203,48.49291 31.0258805,48.6078165 L26.4949033,49.2837563 C26.4213555,49.2947048 26.3474832,49.3000196 26.2739354,49.3000196 L26.2739354,49.3000196 Z" id="Fill-127" fill="#C6BED0" mask="url(#mask-2)"></path>
                    </g>
                </g>
            </g>
        </g>
    </g>
</svg>