<?xml version="1.0" encoding="UTF-8"?>
<svg width="68px" height="68px" viewBox="0 0 68 68" version="1.1" xmlns="http://www.w3.org/2000/svg" xmlns:xlink="http://www.w3.org/1999/xlink">
    <title>Profile_Weeble Copy</title>
    <defs>
        <circle id="path-1" cx="34" cy="34" r="34"></circle>
    </defs>
    <g id="Mobile-App" stroke="none" stroke-width="1" fill="none" fill-rule="evenodd">
        <g id="Mobile-App-PROFILE-VISITS---BASIC-MEMBER" transform="translate(-170.000000, -1865.000000)">
            <g id="Profile_Weeble" transform="translate(170.000000, 1865.000000)">
                <mask id="mask-2" fill="white">
                    <use xlink:href="#path-1"></use>
                </mask>
                <use id="Mask" fill="#F7941E" xlink:href="#path-1"></use>
                <path d="M25.0811681,37.696272 L24.5099485,41.670346 C24.5099485,41.6760806 24.5074321,41.6846825 24.5074321,41.6875498 C24.5074321,41.6846825 24.5099485,41.6818152 24.5099485,41.6789479 L24.2054658,43.8007479 C24.2054658,45.3261501 25.4057818,45.2888752 27.318235,44.8731171 C29.2256554,44.4516244 31.107912,43.6545158 34.5025164,43.6545158 C37.8996372,43.6545158 40.0586962,44.4516244 41.8755267,44.8731171 C43.6923572,45.2888752 44.7945342,45.3261501 44.7945342,43.8007479 L43.9137992,37.6704663 L50.1972144,34.5537142 L50.1972144,36.1221258 C49.9153792,36.211012 49.7040028,36.4977418 49.7040028,36.847552 C49.7040028,37.1600874 49.8675679,37.4210115 50.0990754,37.5443053 L50.0990754,38.1751107 C49.9833216,38.284068 49.9380267,38.4303001 49.9380267,38.4876461 C49.9380267,38.5822669 49.6561915,41.1886401 49.3567416,46.3612444 C49.3567416,47.2300355 51.4000468,47.1956279 51.4000468,46.3612444 C51.0804658,41.1570998 50.8237945,38.5822669 50.8237945,38.4876461 C50.8237945,38.4303001 50.7810159,38.284068 50.6652622,38.1751107 L50.6652622,37.5357034 C50.8942533,37.4124096 51.0502692,37.1543528 51.0502692,36.847552 C51.0502692,36.4920072 50.83386,36.2081447 50.5444757,36.1192585 L50.5444757,34.3816764 L56,31.6720805 L34.5,21 L13,31.6720805 L25.0862008,37.6704663 C25.0836845,37.6790682 25.0836845,37.6876701 25.0811681,37.696272" id="Fill-1" fill="#FFFFFF" mask="url(#mask-2)"></path>
            </g>
        </g>
    </g>
</svg>